<svg width="57" height="57" viewBox="0 0 57 57" fill="none" xmlns="http://www.w3.org/2000/svg">
<circle opacity="0.48" cx="28.5" cy="28.5" r="28.5" fill="white"/>
<path d="M12.7845 13C12.0314 13 11.4209 13.6105 11.4209 14.3636C11.4209 15.1167 12.0314 15.7272 12.7845 15.7272H13.4546C14.0634 15.7272 14.5985 16.1308 14.7658 16.7163L19.09 31.8509C19.5917 33.6071 21.1969 34.818 23.0234 34.818H35.4834C37.156 34.818 38.6603 33.7995 39.2816 32.2464L43.3024 22.1946C44.0188 20.4032 42.6994 18.4545 40.7701 18.4545H18.0988L17.3881 15.967C16.8863 14.2108 15.2811 13 13.4546 13H12.7845Z" fill="#212121"/>
<path d="M23.6935 45.7269C25.9529 45.7269 27.7844 43.8953 27.7844 41.636C27.7844 39.3768 25.9529 37.5452 23.6935 37.5452C21.4342 37.5452 19.6027 39.3768 19.6027 41.636C19.6027 43.8953 21.4342 45.7269 23.6935 45.7269Z" fill="#212121"/>
<path d="M34.6025 45.7269C36.8617 45.7269 38.6933 43.8953 38.6933 41.636C38.6933 39.3768 36.8617 37.5452 34.6025 37.5452C32.3431 37.5452 30.5116 39.3768 30.5116 41.636C30.5116 43.8953 32.3431 45.7269 34.6025 45.7269Z" fill="#212121"/>
</svg>
