<svg width="10" height="18" viewBox="0 0 10 18" fill="none" xmlns="http://www.w3.org/2000/svg">
<path d="M0.366127 17.125C0.131697 16.8905 1.44882e-06 16.5725 1.41983e-06 16.2409C1.39084e-06 15.9094 0.131697 15.5913 0.366127 15.3568L6.98495 8.73803L0.366126 2.11921C0.13834 1.88337 0.0122977 1.56749 0.0151468 1.23962C0.0179959 0.911746 0.149508 0.598109 0.381358 0.366259C0.613208 0.134409 0.926846 0.00289632 1.25472 4.71617e-05C1.58259 -0.002802 1.89847 0.12324 2.13431 0.351026L9.63722 7.85394C9.87165 8.08844 10.0033 8.40645 10.0033 8.73803C10.0033 9.06961 9.87165 9.38762 9.63722 9.62212L2.13431 17.125C1.89981 17.3595 1.5818 17.4912 1.25022 17.4912C0.918636 17.4912 0.600627 17.3595 0.366127 17.125Z" fill="#212121"/>
</svg>
