<svg width="98" height="23" viewBox="0 0 98 23" fill="none" xmlns="http://www.w3.org/2000/svg">
<path d="M3.08484 2.68051C4.35436 2.23872 5.50738 2.34757 6.87202 2.88982C7.31384 3.20918 8.0503 3.94918 9.10071 4.33046C9.77523 4.57497 10.5363 4.81246 11.3422 5.05383C13.384 5.64854 15.0967 6.33757 16.4561 6.78095C17.3306 7.06482 18.2302 7.22402 19.6634 7.51017C19.6835 7.5034 20.849 7.61431 21.6735 7.66917C23.2017 7.7825 24.8867 7.88302 26.5593 7.98845C28.1153 8.08621 29.6397 8.16934 31.116 8.2128C31.2735 8.21719 31.3645 8.37043 31.4339 8.37233C32.0984 8.39163 33.1899 8.23546 33.8094 8.23036C35.2423 8.24048 36.8702 8.0033 38.9136 7.92599C39.098 7.92372 39.2892 7.9213 39.4809 7.92422C39.568 7.97009 39.8277 8.01731 39.9746 8.27967C40.1132 8.27764 40.1409 7.93818 40.1752 7.91422C40.1757 7.91447 40.1761 7.91472 40.1766 7.91497C40.284 7.84117 40.6669 8.00402 40.7469 7.97275C40.7583 7.96808 40.6389 7.74877 40.8442 7.78078C40.8629 7.78322 40.8785 7.94613 41.0455 7.91361C41.0859 7.90679 41.6104 7.53742 41.7825 7.48146C42.3293 7.30844 43.8523 7.13737 44.6702 6.94465C44.7932 6.9161 44.844 6.80689 44.9755 6.77511C45.0439 6.75849 45.1705 6.83556 45.1916 6.83025C45.281 6.8059 45.5992 6.25657 45.6472 7.19212C46.0702 7.04024 45.8805 6.76951 45.8483 6.57324C46.3303 6.44175 46.6661 6.82161 46.7152 6.3426C46.8539 6.31941 47.0015 6.29548 47.1464 6.27323C48.8386 6.01889 50.9119 5.62972 52.8501 5.28275C52.8354 5.20901 52.8207 5.13526 52.806 5.06152C53.4771 5.22858 53.581 4.68802 54.0199 5.04222C54.2139 4.90376 54.412 4.76445 54.606 4.62604C55.5806 4.47597 56.5493 4.30763 57.52 4.12553C60.0754 3.62488 63.2055 3.1028 65.2562 2.73004C67.0758 2.38243 68.4889 2.19233 69.4743 1.94352C70.2474 1.76296 70.9775 1.64098 71.6527 1.55147C71.9479 1.51317 72.0449 1.66133 72.5027 1.61165C73.0059 1.55721 73.6493 1.31314 74.1754 1.26666C74.3182 1.25387 74.4771 1.25356 74.6353 1.25846C75.0366 1.26485 75.5011 1.29404 75.8792 1.27053C76.0027 1.26258 76.0812 1.15235 76.0952 1.15144C76.1773 1.14672 76.1984 1.30581 76.2782 1.30192C76.3738 1.29688 76.4764 1.16649 76.5877 1.16206C77.0029 1.1446 77.4555 1.05603 77.5094 1.05326C77.7674 1.04169 77.8408 1.19197 77.8621 1.19149C78.1514 1.18107 78.0294 1.05127 78.1021 1.0521C78.4807 1.05743 78.7784 1.38254 79.2726 0.995487C79.2701 1.12746 79.2682 1.25939 79.2661 1.39134C79.6764 1.42753 79.3781 1.10506 79.4549 1.0346C79.4827 1.00737 80.381 0.973349 80.4598 0.975241C80.7111 0.978856 80.7336 1.15255 80.7549 1.15329C80.7738 1.15402 80.8697 1.12246 81.0008 1.08891C81.1794 1.03325 81.4602 0.968681 81.6505 1.05315C82.004 1.21018 81.6263 1.59092 81.7154 1.6517C81.7292 1.66199 82.0868 1.60179 82.1465 1.7093C82.2071 1.82499 81.8934 1.84299 81.9008 1.89277C81.9058 1.92666 82.4456 2.13853 82.3562 2.3104C82.2843 2.48095 81.5657 2.31543 81.4353 2.40269C81.4129 2.41716 81.4705 2.61887 81.4504 2.62776C81.4273 2.63714 81.2859 2.65289 81.1026 2.6687C80.5361 2.71376 79.6696 2.78837 79.6138 2.76947C79.6923 2.6685 79.7691 2.56782 79.8491 2.467C79.7321 2.46782 79.6155 2.46886 79.5007 2.46995C79.6563 2.38044 79.8151 2.29106 79.9745 2.20222C79.6566 1.45659 78.9971 2.30205 79.0077 2.68724C79.0128 2.86503 79.4936 3.27786 79.112 3.58172C79.1785 3.62108 79.2446 3.66052 79.3104 3.70004C79.4313 3.61334 79.5525 3.52683 79.6741 3.44057C79.5848 3.40131 79.4934 3.36238 79.4044 3.32333C79.4309 3.26722 79.4568 3.21119 79.4838 3.15506C79.7166 3.04746 79.9523 2.94046 80.1931 2.83443C80.3246 2.8631 80.3109 3.0224 80.4007 3.0457C81.0278 3.20962 81.0871 3.15382 81.1286 3.07085C81.1584 3.00479 81.1805 2.9237 81.4733 2.9355C81.5718 3.0137 81.6732 3.09166 81.7745 3.16966C81.7179 2.82275 82.0277 3.02165 82.3917 2.8473C82.3538 2.9632 82.3168 3.07907 82.2805 3.19491C82.8137 3.09801 83.9412 3.61311 83.6137 3.00401C83.7455 3.05088 83.8631 3.09869 83.994 3.1461C84.092 3.03926 84.1903 2.93257 84.2934 2.82584C84.4331 2.83155 84.5854 2.83705 84.7248 2.84333C84.7276 2.8986 84.7304 2.95387 84.7332 3.00914C84.624 3.01373 84.5015 3.01902 84.39 3.02405C84.4817 3.18895 84.5757 3.35385 84.6695 3.51886C84.7502 3.48764 84.8325 3.45643 84.9167 3.42525C84.5549 3.27951 85.0186 3.00096 85.1174 2.77488C85.4181 2.68181 85.6082 2.96497 85.7129 2.97466C85.7564 2.97924 86.2964 2.45335 86.0944 3.01975C86.3718 2.94361 86.6531 2.86808 86.9331 2.7932C87.0487 2.83336 87.1533 2.87388 87.2646 2.91432C87.0328 3.18059 87.7298 3.47934 87.2242 3.599C86.8513 3.68887 86.7467 3.44769 86.5701 3.45397C86.4037 3.45959 86.3241 3.62616 86.1497 3.6385C84.9582 3.7198 83.9791 3.72785 82.8223 3.72298C82.5952 3.72178 82.3933 3.81536 82.243 3.81385C82.0717 3.81202 82.2704 3.59243 82.059 3.65662C81.8357 3.72461 81.7999 3.89571 81.7416 3.903C81.7062 3.90731 81.5794 3.76423 81.4755 3.77119C81.3808 3.77756 81.2781 3.79153 81.1762 3.80923C80.7571 3.8754 80.3456 3.99933 80.2935 4.00294C80.2152 4.00518 78.9254 3.98815 78.8663 3.97076C78.8333 3.96047 78.8433 3.39779 78.6255 4.01831C78.5398 4.03804 78.4554 4.05771 78.3701 4.07753C78.3727 3.96503 78.3754 3.85253 78.3781 3.74003C77.911 4.21331 78.0624 3.95968 77.5775 4.04374C76.8335 4.17322 75.862 4.25804 74.9475 4.34003C74.4699 4.38233 73.9596 4.42286 73.4855 4.48273C73.1882 4.52074 73.0865 4.66469 72.7216 4.71468C72.391 4.7553 71.3917 4.49523 71.6771 5.01336C70.7922 4.66701 70.8036 5.51387 70.2836 5.09798C70.263 5.14774 70.2426 5.19753 70.2223 5.24737C70.2149 5.28056 70.2074 5.31374 70.1999 5.34692C69.8196 5.10162 69.7843 5.39706 69.433 5.50255C69.2804 5.54741 69.4016 5.17905 69.1512 5.60943C69.0853 5.5921 69.0193 5.5746 68.9529 5.557C68.9536 5.47305 68.9542 5.38911 68.9547 5.30519C68.6091 5.43136 68.5737 5.39195 68.6653 5.691C68.479 5.66368 68.2898 5.63574 68.0973 5.60782C68.0895 5.71169 68.0817 5.81558 68.0737 5.91947C68.1366 6.00826 69.2904 5.82333 70.2862 5.52956C71.6331 5.16284 72.8889 4.96551 73.1889 4.88585C73.6804 4.98012 74.4203 4.85749 74.9889 4.74892C75.3456 4.68257 75.6699 4.62153 75.8827 4.61958C76.1123 4.61754 76.2371 4.83532 76.5726 4.82753C76.908 4.8197 77.307 4.56764 77.485 4.54146C78.0654 4.44831 80.9563 4.21984 79.0236 4.69121C79.0908 4.79712 79.1576 4.9031 79.2241 5.00916C79.9639 4.55515 79.7046 4.81502 80.3606 4.79794C80.59 4.79213 81.0793 4.58521 81.2407 4.80949C81.27 4.8553 81.287 4.91871 81.2868 5.00505C81.2758 5.00797 81.2648 5.01075 81.2538 5.01339C80.7438 5.12751 80.2063 5.01838 79.777 5.06485C79.7325 5.06943 79.2374 5.34928 78.9677 5.31296C78.7238 5.27945 78.8379 4.78035 78.3764 5.37458C77.9384 4.88496 77.7678 5.38813 77.6724 5.44967C77.5079 5.55637 77.4612 5.29739 77.2844 5.28534C77.0917 5.27176 76.9802 5.45879 76.9546 5.46265C76.6947 5.49447 75.358 5.6591 75.2882 5.55909C75.3368 5.50732 75.3855 5.4555 75.4346 5.40364C75.0815 5.36467 75.1806 5.62414 75.0934 5.66532C75.0895 5.66566 75.0857 5.66599 75.0818 5.66633C75.0207 5.6716 74.9588 5.67681 74.8968 5.68192C74.9175 5.62398 74.9379 5.56605 74.9583 5.50809C74.562 5.5583 74.8901 5.72171 74.3103 5.77025C73.9399 5.80046 73.5206 5.62684 73.4839 5.64647C73.4734 5.65203 73.6089 5.78272 73.4532 5.81727C73.1961 5.8735 72.7339 5.92106 72.6578 5.7344C72.528 5.7775 72.5624 5.96567 72.5453 5.97207C72.4766 5.99078 71.1345 6.2545 70.884 6.32965C70.7557 6.36141 70.6238 6.39279 70.4889 6.42509C70.0382 6.53497 69.539 6.60639 69.0387 6.71478C68.9752 6.72844 68.9963 6.60099 68.9328 6.6153C68.8332 6.63859 68.3225 6.91163 68.2405 6.93721C68.0425 7.00065 67.4811 7.00673 67.4006 7.07535C67.3894 7.08501 67.5967 7.22114 67.3907 7.30397C67.1614 7.39607 67.2559 7.15676 67.2427 7.1565C66.7446 7.15538 66.4541 7.35944 66.1203 7.4478C66.1095 7.45065 66.0975 7.45195 66.0844 7.45205C65.9801 7.45057 65.7982 7.34798 65.6791 7.41228C65.6637 7.42046 65.7207 7.56798 65.7059 7.57809C65.5044 7.69288 65.2566 7.44004 65.1584 7.43613C64.9197 7.42617 65.077 7.61673 65.0655 7.62001C64.9111 7.65006 64.6883 7.60577 64.4483 7.65155C63.375 7.85574 62.477 8.00877 61.3169 8.201C61.168 8.2258 60.9732 8.10927 60.9492 8.11345C60.8798 8.12729 60.9312 8.29632 60.733 8.32885C60.313 8.39732 59.9277 8.47967 59.5141 8.55763C59.4317 8.57313 59.3646 8.42051 59.3002 8.42971C59.1291 8.45527 58.7007 8.81066 58.4642 8.70794C58.4022 8.68008 58.3544 8.61915 58.3293 8.50996C58.0094 9.05523 57.6535 8.71563 57.3197 8.78929C56.5337 8.96223 55.3138 9.31359 54.5172 9.41732C54.3477 9.43927 54.2429 9.3223 54.15 9.33416C53.9809 9.35562 53.0525 9.62635 53.0005 9.61524C52.8951 9.59512 52.8307 8.99743 52.4389 9.61122C52.1564 9.70776 52.1393 9.46049 52.0764 9.46001C51.5864 9.46086 51.2406 10.0916 51.2251 9.58209C50.707 9.82804 50.409 10.1719 50.092 9.75717C50.1408 9.98105 49.9125 10.1678 49.5866 10.144C49.829 9.7026 49.7349 9.47127 50.516 9.38374C50.5281 9.38241 50.5387 9.54939 50.5508 9.54807C50.6604 9.53709 50.8729 9.40812 51.0612 9.37854C51.251 9.34868 51.1689 9.48123 51.243 9.46373C51.3107 9.44749 51.2762 9.2927 51.3753 9.26994C51.6946 9.19772 51.9701 9.096 52.1537 9.05505C52.2672 9.02983 52.4256 9.13925 52.5157 9.12054C52.8612 9.04766 53.5728 8.78846 54.0173 8.71144C54.1094 8.69589 54.1023 8.85707 54.3064 8.8278C54.3303 8.82438 54.3836 8.64676 54.5518 8.57723C54.7213 8.5074 54.8746 8.55819 54.9839 8.51821C55.0756 8.48474 55.0067 8.35115 55.1994 8.30182C55.3599 8.26076 57.2136 7.98261 57.3185 7.9848C57.4687 7.98774 57.5771 8.17302 57.6598 8.13063C57.6741 8.12224 57.6604 7.92448 57.7111 7.89965C57.8612 7.82633 58.0447 7.76241 58.2574 7.70434C59.2493 7.4322 60.7889 7.32344 61.6425 7.17714C63.1407 6.91045 64.636 6.66185 65.8995 6.39756C66.5729 6.25711 67.2375 6.13909 67.8816 6.02916C67.9142 5.98974 67.9467 5.95034 67.979 5.91095C67.7668 5.94137 67.5503 5.97199 67.3299 6.00369C67.3148 5.91247 67.2997 5.82126 67.2846 5.73005C66.983 5.76056 67.0543 5.97117 67.0829 6.10019C66.963 6.06179 66.8418 6.02379 66.7198 5.98623C66.6853 6.22623 66.2667 6.24532 65.877 6.26951C65.7535 6.27383 65.6314 6.27719 65.5366 6.29275C65.3166 6.32869 65.0592 6.492 64.934 6.50118C64.6691 6.52101 64.6442 6.32353 64.6237 6.32342C64.5887 6.32415 64.2404 6.55277 63.9631 6.58734C63.5547 6.63893 63.4624 6.34343 62.9383 6.68792C62.1869 6.64589 61.3948 6.86128 60.6215 7.02975C60.72 6.72459 60.0678 7.1163 59.7566 7.17237C59.2624 7.26009 58.7396 7.35068 58.2036 7.44302C56.6933 7.70202 55.0649 7.95149 53.6573 8.15998C53.4163 8.19576 53.1968 8.07166 53.0663 8.10442C52.9939 8.12237 53.0015 8.32094 52.8954 8.31653C52.8765 8.31535 52.8274 8.13842 52.6343 8.15037C52.1518 8.18005 51.0532 8.7197 50.6905 8.43488C49.6574 8.68269 48.5928 8.9389 47.6483 9.14344C47.0152 9.27331 46.4249 9.41797 45.8534 9.56507C45.7947 9.50152 45.7358 9.43805 45.6769 9.37465C45.4352 9.81943 44.1612 9.89227 43.5952 10.0469C42.5895 10.3221 41.3745 10.7225 40.6231 10.8572C40.4588 10.8874 40.3139 10.7996 40.172 10.8209C40.112 10.8302 40.0548 10.9791 39.9946 10.9866C39.8824 11.0011 39.7678 11.009 39.6687 11.0095C38.542 11.0532 37.5255 11.1188 36.808 11.193C34.847 11.4146 32.9151 11.4354 30.7766 11.4309C29.3344 11.4258 27.8961 11.3985 26.4291 11.3574C23.8047 11.2709 20.6639 11.2378 18.8828 10.9442C17.487 10.6482 16.3834 10.4122 15.3095 10.0356C13.8992 9.54773 12.3332 8.91395 10.4972 8.43472C10.244 8.36918 9.9915 8.30486 9.74027 8.24156C9.64121 8.21661 9.68321 8.06031 9.60643 8.04081C9.15033 7.92279 8.11641 7.8224 7.63405 7.70292C7.2423 7.60695 6.71414 7.22468 6.5337 7.43514C7.62632 8.06289 9.03785 8.3701 10.4071 8.79561C10.5558 8.84051 10.7025 8.88748 10.846 8.93622C10.9637 8.97622 10.9363 9.12856 10.9501 9.13531C11.2019 9.26273 11.0938 9.00983 11.4795 9.1148C11.621 9.14811 12.5882 9.98452 12.6085 9.47834C12.8308 9.75311 14.5679 10.4911 14.8922 10.5371C14.9963 10.5533 14.9759 10.3923 14.9977 10.3923C15.0784 10.3918 15.0686 10.5408 15.1099 10.6021C15.1159 10.6119 15.1234 10.6194 15.1327 10.6234C15.31 10.7007 15.8242 10.6956 15.9126 10.722C16.1128 10.7874 16.6986 11.1172 17.0016 11.1502C17.2762 11.1815 17.2749 10.9664 17.5131 11.0029C17.7038 11.0321 17.456 11.1556 17.8703 11.3044C18.0145 11.356 18.4469 11.3944 18.7719 11.432C18.8393 11.4321 18.9139 11.4349 18.9495 11.4415C19.0732 11.4642 19.2153 11.6131 19.4365 11.6319C19.7469 11.6612 20.5136 11.6614 20.8829 11.647C20.9049 11.6464 20.9712 11.4886 21.0234 11.4957C21.1337 11.5104 21.0862 11.7079 21.1706 11.7342C21.2484 11.7635 22.7447 11.8265 23.0058 11.8392C23.1854 11.8493 23.3098 11.7358 23.4102 11.7416C23.4875 11.7465 23.4867 11.9135 23.5652 11.9191C23.5895 11.9202 23.8041 11.7851 24.0115 11.7978C24.2059 11.8103 24.9504 11.98 25.0353 11.9846C25.092 11.9875 25.0341 11.8665 25.2029 11.8762C25.3528 11.8853 25.4473 12.0432 25.5349 12.049C25.7344 12.0621 25.969 11.9399 26.1802 11.9475C26.2671 11.9507 26.3417 11.9572 26.4056 11.966C26.7918 12.0196 26.7645 12.1598 26.7965 12.1664C26.8974 12.1873 26.9438 12.0141 26.9769 12.0116C27.1144 12.0019 27.4602 11.9812 27.5873 11.9784C27.7437 11.9749 27.8042 12.1429 27.9667 12.1482C28.0816 12.1515 28.3495 11.9971 28.625 11.996C29.2582 11.9933 30.0031 11.9756 30.6218 11.9864C30.8048 11.9895 30.8304 12.1411 30.8855 12.1454C31.1834 12.1677 31.3487 11.9979 31.4304 12.0002C32.0311 12.0166 33.0895 12.2675 33.639 12.2707C33.8716 12.274 34.8243 12.1123 35.3671 12.0946C35.4295 12.0926 35.3795 12.2152 35.4473 12.1919C35.6086 12.1358 35.5706 11.8957 35.6567 11.8966C35.6975 11.8978 35.8006 12.0268 35.9151 12.0309C36.5248 12.0511 36.925 11.8984 37.2043 11.8736C37.9343 11.8114 38.7477 11.7027 39.7083 11.6603C41.1987 11.5947 43.306 11.0633 45.1827 10.6428C45.4777 10.5757 45.8143 10.349 46.3044 10.3841C46.3347 10.4545 46.3649 10.5248 46.395 10.5952C46.3952 10.5195 46.3954 10.4438 46.3957 10.3681C46.9117 10.2161 47.0943 10.08 47.6768 10.0686C47.702 10.0681 47.7673 10.1462 47.8277 10.1694C47.8761 10.1944 47.9224 10.1644 47.9243 9.94833C48.451 10.166 48.1361 9.90738 48.4888 9.81139C48.8415 9.71458 49.2172 9.73713 49.578 9.6866C49.8038 9.79731 49.051 10.3069 48.9999 10.3151C48.9109 10.3312 48.7871 10.1393 48.6999 10.1447C48.4527 10.1582 48.2479 10.3675 48.1641 10.1905C47.8914 10.4438 48.2586 10.275 48.251 10.4594C48.1205 10.4386 47.989 10.4174 47.8669 10.3937C47.766 10.3807 47.6639 10.3685 47.5621 10.3567C47.5498 10.9761 46.1401 10.4573 46.3283 10.8969C46.2095 10.8275 46.0925 10.758 45.974 10.6891C45.6784 11.3567 45.3401 11.0127 44.744 10.9758C44.8014 11.039 44.8588 11.1023 44.9161 11.1656C44.9113 11.1988 44.4526 11.4316 44.5523 11.0798C44.1527 11.6076 44.0114 10.923 43.6883 11.5195C43.4424 11.6444 43.5302 11.3226 43.0687 11.4359C42.7957 11.5025 42.4924 11.7293 42.1943 11.8051C42.1254 11.8221 42.0603 11.6623 41.999 11.6755C41.9378 11.6886 41.9425 11.858 41.8696 11.8776C41.7184 11.9186 41.5001 11.8432 41.4087 11.8724C41.3278 11.8978 41.2345 12.0659 41.039 12.1242C40.3636 12.3217 40.5441 12.0737 40.4287 12.0207C40.3075 11.9612 40.2626 12.2474 40.047 12.2382C40.0256 12.237 40.0618 12.0601 39.9951 12.0736C39.9429 12.0837 39.9303 12.2747 39.7617 12.3211C39.759 12.3218 39.7546 12.3227 39.7487 12.3238C39.5066 12.3401 38.1062 12.5383 37.9267 12.5681C37.5973 12.6152 36.8812 12.5396 36.5623 12.5705C36.4421 12.5824 36.3171 12.7451 36.1884 12.7554C35.7513 12.7917 35.0402 12.8278 34.4777 12.8458C33.9684 12.8648 33.0624 12.5568 32.7863 12.8601C32.0658 12.9109 31.8852 12.6529 31.8315 12.6503C31.6853 12.6415 31.6072 12.8114 31.4277 12.8195C29.9119 12.8826 28.1105 12.8203 26.376 12.7318C25.3236 12.6786 24.3139 12.6241 23.4381 12.5876C21.7556 12.5105 19.8677 12.4525 18.5947 12.2118C17.2255 11.9189 16.0339 11.6651 14.8779 11.2606C13.4354 10.7618 11.9019 10.1495 10.1795 9.70604C9.40991 9.5095 8.64308 9.32468 7.89181 9.14165C7.86061 9.21163 7.82944 9.2816 7.79831 9.35159C8.41674 9.5437 9.1391 9.8454 9.76362 10.03C9.86276 10.0591 9.96758 10.0848 10.0788 10.1092C10.9657 10.3023 12.0786 10.4769 12.4615 11.0919C12.2024 11.0484 11.8579 10.7249 11.7815 10.9784C12.2216 11.1445 12.6525 11.317 13.0771 11.4901C13.1056 11.3706 13.1341 11.2511 13.1626 11.1316C13.6265 11.2609 14.0713 11.4529 14.5132 11.5922C14.5899 11.6165 14.5736 11.493 14.6392 11.5158C14.7129 11.5415 14.6254 11.6301 14.6388 11.6359C14.6754 11.6491 14.7082 11.6561 14.7375 11.6591C14.8527 11.6695 14.9135 11.6126 14.9305 11.6199C14.9843 11.6429 14.9054 11.7313 15.0562 11.8137C15.3369 11.9666 15.6371 11.7542 15.426 12.1928C15.5241 12.2227 15.6227 12.252 15.7217 12.2807C15.7836 12.1624 15.8453 12.044 15.9064 11.9253C16.3732 12.6057 16.8896 11.7738 17.0648 12.5718C17.2063 12.4898 17.3478 12.4073 17.4896 12.3245C17.5263 12.4671 17.5637 12.6098 17.6015 12.7525C17.6393 12.6458 17.677 12.5392 17.7147 12.4326C17.9616 12.5222 18.2274 12.5795 18.5 12.6281C18.7898 12.6738 19.1601 12.6804 19.5046 12.7282C19.9065 12.7824 20.0049 12.8351 20.3781 12.8589C21.2149 12.9057 20.3633 13.0642 21.0498 13.3557C21.022 13.2157 20.9948 13.0758 20.9682 12.9358C21.0893 12.8939 21.2062 12.8513 21.3278 12.8088C21.4018 12.9262 21.4741 13.0434 21.5502 13.1606C21.9464 12.6017 22.1559 13.0839 22.2043 13.0867C22.244 13.0878 22.3996 12.7458 22.8162 13.0645C22.6617 12.5767 23.147 13.0784 23.1866 13.083C23.2253 13.0869 23.729 13.0037 23.9287 13.017C24.0892 13.0277 24.4221 13.1456 24.6592 13.1505C24.8715 13.155 24.8538 12.9913 24.8698 12.9903C25.1274 12.9875 24.9605 13.1071 25.1484 13.1211C25.3319 13.1348 25.484 13.0021 25.5243 13.0161C25.5443 13.0235 25.4705 13.1723 25.5626 13.1907C25.7579 13.2304 26.0871 13.1654 26.36 13.145C26.43 13.1398 26.4957 13.1375 26.554 13.1405C26.6559 13.1455 26.7785 13.2787 26.8896 13.2866C27.06 13.2983 27.1433 13.1302 27.2411 13.1386C27.2764 13.142 27.4953 13.4134 27.7693 13.3812C27.8239 13.3747 27.9821 12.8208 28.1709 13.6175C28.19 13.5066 28.2091 13.3958 28.2281 13.2849C29.1489 13.0335 29.3894 13.9407 29.8163 13.1451C30.4786 13.2439 30.0193 13.5502 30.0918 13.5992C30.1378 13.6301 30.3537 13.5465 30.3802 13.5517C30.4232 13.5617 30.4148 13.6619 30.4619 13.6618C31.3064 13.6494 30.937 13.4568 31.2058 13.3379C31.8361 13.0522 32.3446 13.6845 31.2317 13.4961C31.2316 13.5521 31.2315 13.6081 31.2315 13.6641C31.499 13.6118 32.201 13.6326 31.9696 13.918C31.7833 14.1466 30.1287 13.9931 31.0665 14.3111C31.2866 14.3827 31.3823 14.1731 31.7633 14.5656C32.0129 14.5857 32.031 14.0754 32.373 14.2765C32.3161 14.0991 32.2591 13.9217 32.2021 13.7442C32.6526 13.508 33.1988 13.8083 33.5461 13.698C33.6569 13.6612 34.0507 12.7978 33.9825 13.6494C34.174 13.5916 35.0945 13.7027 35.2637 13.6134C35.3019 13.5918 35.3284 13.1409 35.9213 13.2532C35.966 13.3064 36.0105 13.3596 36.0547 13.4128C35.5356 13.6203 36.4959 13.7089 36.2761 14.1574C36.1678 13.974 35.7269 13.8909 35.6549 13.7984C35.5258 13.6402 35.8603 13.4013 35.4179 13.4908C35.1804 14.2256 35.969 13.8399 35.8986 14.5264C36.4698 14.1624 36.5537 14.4553 36.6907 14.4555C37.2706 14.4501 37.6282 14.3337 38.184 14.3448C38.2961 14.1906 37.2894 14.1106 37.1762 14.1814C37.5618 13.6396 36.8031 13.7035 36.5079 14.0247C36.4666 13.8781 36.4244 13.7317 36.3844 13.585C36.8064 13.628 37.2203 13.6248 37.6211 13.4527C37.6549 13.505 37.6886 13.5573 37.7222 13.6097C37.6407 13.7045 37.5525 13.8 37.4717 13.8943C37.8366 13.9899 37.5721 13.5823 38.0858 13.9043C38.0797 13.7352 38.0735 13.566 38.0673 13.3969C38.5217 13.397 38.995 13.393 39.4821 13.4091C39.5447 13.3094 39.6632 13.2417 39.8025 13.2078C40.0737 13.127 40.4766 13.2281 40.4113 13.5549C40.7416 13.543 40.3088 13.3656 40.5991 13.2186C40.7226 13.155 40.9799 13.1004 41.0657 13.2049C41.1069 13.6216 40.7169 13.7363 40.6317 14.0353C40.7242 14.1382 42.56 13.4815 42.493 13.9835C42.6575 14.0079 42.5347 13.778 42.7942 13.6549C43.5184 13.3121 44.8179 13.5062 45.2927 12.7534C44.4851 12.5897 44.3574 12.9991 43.8069 13.1444C43.454 13.2491 41.3178 13.7621 41.7129 13.2258C41.6457 13.2961 41.5796 13.3658 41.511 13.4356C41.4075 13.3216 41.3075 13.2065 41.2061 13.0913C41.4203 13.0341 41.6362 12.9733 41.8524 12.9101C41.9308 13.0277 42.0102 13.145 42.0905 13.262C42.0959 13.1654 42.1011 13.0689 42.1063 12.9724C42.1952 12.9348 42.2859 12.8964 42.3746 12.8582C42.3722 12.9736 42.3697 13.0891 42.3671 13.2045C42.5152 13.1923 42.6654 13.1789 42.8148 13.1651C42.7428 13.0274 42.6711 12.8897 42.5999 12.7518C43.2718 12.562 43.0619 12.705 43.506 12.8901C43.7969 12.8512 43.2507 12.6838 43.8352 12.4703C44.5171 12.2203 44.1617 12.7763 45.0528 12.4622C45.0486 12.3862 45.0444 12.3103 45.0402 12.2343C45.2594 12.259 45.4789 12.2838 45.6984 12.3092C45.6502 12.2249 45.6022 12.1405 45.5541 12.0562C45.9793 11.9925 46.5273 11.6871 46.746 12.0138C46.2771 11.937 46.4244 12.5588 46.5596 12.6482C46.684 12.7304 47.3935 12.5803 48.2208 12.4173C49.2442 12.2141 50.4438 11.889 50.8016 11.8082C51.6281 11.6187 52.2963 11.6888 52.9922 11.2238C52.4249 11.0792 50.6606 11.6583 50.2844 11.5515C50.247 11.5412 50.1392 10.9667 50.0538 11.6548C49.4698 11.68 48.8357 11.9134 48.1595 12.0671C47.9893 12.105 47.8157 12.1415 47.6393 12.1723C47.6345 12.0017 47.6305 11.831 47.6267 11.6604C47.8002 11.7274 47.9558 11.7107 48.0894 11.666C48.4114 11.5532 48.6106 11.2274 48.646 11.7029C48.7493 11.6834 48.8589 11.6625 48.9642 11.6422C48.9428 11.5316 48.9215 11.421 48.9002 11.3104C49.0616 11.2793 49.221 11.2481 49.3818 11.2163C49.4037 11.3268 49.4255 11.4373 49.4473 11.5478C49.5812 11.5213 49.7164 11.4944 49.848 11.468C49.8397 11.3552 49.8315 11.2423 49.8233 11.1294C50.2702 11.2785 51.5131 10.3867 51.0446 11.1674C51.2347 11.1285 51.4229 11.0898 51.6097 11.0512C51.5925 10.9707 51.5753 10.8902 51.558 10.8097C51.6361 10.7823 51.7171 10.7543 51.7949 10.7269C51.7837 10.8053 51.7721 10.8838 51.76 10.9624C52.1026 10.7553 52.5368 11.0661 52.7268 10.7632C52.5544 10.7415 52.3822 10.7197 52.2101 10.6978C52.5421 10.7384 53.0618 10.404 53.1148 10.3924C53.2692 10.3592 53.3838 10.5054 53.5552 10.4784C53.707 10.4542 53.6606 10.3331 53.6896 10.3317C54.5342 10.2889 54.3642 11.0317 54.5789 10.1496C54.6425 10.2507 54.7065 10.3518 54.7701 10.4529C54.8047 10.3503 54.8396 10.2476 54.8746 10.1449C55.1193 10.1029 55.3614 10.0615 55.6056 10.0197C55.4976 9.8992 55.3869 9.77925 55.2778 9.65898C55.6284 9.52223 55.8536 9.76207 55.8909 9.7609C55.9934 9.75627 56.0025 9.57446 56.0332 9.56775C57.5154 9.27559 56.6477 9.61409 57.5205 10.109C57.7312 9.80017 57.4119 9.60043 57.3212 9.34944C57.6971 9.39819 57.7903 9.3042 58.164 9.24203C58.2605 9.22617 58.3928 9.3444 58.4541 9.33374C58.479 9.3294 58.522 9.28674 58.5738 9.23996C58.6336 9.18704 58.704 9.1291 58.7713 9.11501C58.9805 9.07111 59.2838 9.10198 59.5758 9.04213C59.819 8.99141 60.5387 8.74342 61.0627 8.64766C61.2856 8.60723 61.2542 8.74177 61.3126 8.73151C61.3378 8.72696 61.4826 8.54689 61.6266 8.52104C62.7905 8.31139 64.0161 8.22611 65.1603 8.05408C65.4985 8.00243 65.8324 7.92819 66.1537 7.84703C66.6404 7.72762 67.1243 7.61486 67.6018 7.55075C67.7774 7.52738 67.7011 7.65141 67.7779 7.64395C67.8041 7.64106 67.8079 7.444 68.0872 7.48147C68.188 7.49494 68.097 7.64596 68.1929 7.6385C68.2392 7.63478 68.2347 7.46343 68.496 7.3845C68.9689 7.24082 69.2567 7.42183 69.2989 7.40803C69.3764 7.38165 69.3295 7.24663 69.4334 7.22357C69.8705 7.12599 70.235 7.03284 70.6046 6.93613C70.6763 6.9178 70.748 6.90018 70.8206 6.88314C71.0719 6.80334 72.7387 6.53019 72.8234 6.55866C73.03 6.59199 72.8774 6.90519 73.1302 6.86745C73.1931 6.78571 73.2564 6.70413 73.3198 6.6227C73.2013 6.57791 73.0819 6.53363 72.9613 6.49001C73.2861 6.5491 73.623 6.382 73.85 6.36583C73.8926 6.36284 74.2875 6.46067 74.4771 6.42863C74.4006 6.49124 74.3238 6.55384 74.2464 6.6165C74.2798 6.66084 74.3133 6.70517 74.3466 6.74951C74.6177 6.67332 74.9001 6.63372 75.177 6.60573C75.2897 6.59434 75.4036 6.58493 75.5161 6.57623C75.6586 6.565 75.6219 6.68408 75.7665 6.67301C76.6072 6.60935 76.3453 6.15711 77.2488 6.96143C76.9665 6.90981 75.9827 7.12848 75.8355 7.11354C75.7319 7.10345 75.2654 6.3912 75.4874 7.14856C75.3779 7.15935 75.2944 7.1594 75.2323 7.15174C74.8401 7.1021 75.24 6.75451 74.6033 6.89557C74.627 6.9885 74.6507 7.08143 74.6744 7.17436C74.4178 7.25809 74.2268 7.32343 74.0503 7.17198C74.0396 7.63425 73.1113 7.45018 72.61 7.54732C72.044 7.65317 71.4249 7.82925 70.8461 8.0028C70.6977 8.04779 70.5506 8.08796 70.4064 8.12172C70.1736 8.17595 70.0072 8.02323 69.9783 8.02934C69.9359 8.03867 69.8437 8.21606 69.7573 8.23251C69.4363 8.29774 68.4071 8.18599 68.221 8.65518C69.1213 8.52165 70.0127 8.38374 70.8874 8.18506C71.9545 7.94334 73.0344 7.82892 74.1002 7.73029C73.9292 7.60788 74.6766 7.48359 75.2578 7.40366C75.5941 7.35713 75.8821 7.32663 75.9188 7.32675C76.0131 7.32658 75.9502 7.48509 75.9789 7.49131C76.1924 7.53418 76.3458 7.29765 76.4115 7.29071C76.4615 7.28546 76.5735 7.37702 76.7511 7.35593C76.7837 7.35215 76.7814 7.24307 76.8165 7.23902C77.0486 7.21441 77.2782 7.19158 77.5114 7.16637C77.5257 7.16591 77.6013 7.31763 77.6602 7.31171C77.7193 7.30548 77.761 7.14152 77.7759 7.13946C77.9626 7.12093 78.2934 7.1902 78.471 7.1731C78.5327 7.16671 78.478 7.05541 78.5473 7.04942C78.7598 7.03056 78.713 7.26409 78.9697 7.17933C79.0556 7.1509 79.0329 6.97813 79.2038 6.98431C79.325 6.98881 79.3425 7.29888 79.3625 7.30825C79.3892 7.31917 79.7789 7.0356 79.9328 7.22561C79.6873 7.78661 80.2572 7.22396 80.208 7.00169C80.3772 7.0439 80.546 7.0867 80.7144 7.13026C80.7655 7.06865 80.8178 7.00705 80.8689 6.94563C81.06 7.00303 81.228 7.03105 81.3847 7.04276C81.7862 7.07329 82.1229 6.98432 82.5938 7.01168C82.6288 7.013 83.1786 7.10737 83.1606 7.18951C82.8415 7.3467 82.516 7.37408 82.2904 7.13222C81.9801 7.6397 81.9472 7.25966 81.4048 7.35471C81.4018 7.35525 81.3987 7.35581 81.3956 7.35638C81.2114 7.39052 81.2075 7.5241 81.1864 7.52721C80.4697 7.64248 79.3237 7.81213 78.798 7.47638C78.6723 7.59443 79.1664 7.58637 78.9836 7.68239C78.8837 7.73238 76.3983 8.11986 77.1494 7.5916C77.0679 7.61268 76.9862 7.63379 76.9047 7.65487C76.8662 8.08293 76.4439 8.03065 76.4465 7.60812C76.4164 7.6977 76.3864 7.78729 76.3564 7.87686C76.2871 7.95726 76.1995 8.00565 76.0739 8.04202C75.9534 8.07672 75.6788 8.11286 75.3332 8.14747C74.2915 8.24275 72.6241 8.33619 72.5164 8.40938C72.5262 8.50857 72.536 8.60775 72.5459 8.70692C73.4721 8.66441 74.3743 8.48971 75.3624 8.4359C75.7272 8.41578 76.1025 8.41496 76.4924 8.45168C76.4417 8.36309 76.3911 8.27448 76.3406 8.18586C76.9154 8.25694 77.4901 8.32701 78.0635 8.39851C77.489 8.62859 76.56 8.87104 75.9198 8.7974C75.806 8.78423 75.8741 8.64619 75.8469 8.63314C75.7763 8.59922 75.7277 8.83159 75.4897 8.87795C75.4659 8.88257 75.4384 8.88574 75.4082 8.88771C75.1284 8.9065 74.6223 8.8226 74.5735 8.83118C74.4678 8.85022 74.2059 9.13382 74.0277 9.14749C73.7932 9.16536 73.9347 8.99104 73.8874 8.99217C73.6913 8.99528 73.5263 9.09181 73.3747 9.0962C73.1509 9.10152 72.6519 8.87904 72.5559 9.31071C72.7139 9.30794 72.8725 9.30679 73.0318 9.30687C72.3672 9.50631 71.7689 9.27996 71.1837 9.49386C71.0219 9.55087 70.8608 9.6304 70.6984 9.74547C70.5883 10.2789 71.3376 10.0562 70.7347 10.3976C70.8505 10.3672 70.9669 10.3359 71.0831 10.3037C71.0888 10.1953 71.0941 10.0869 71.0992 9.97859C71.1658 9.98765 71.2322 9.99649 71.2994 10.0049C71.4262 10.0293 71.5526 10.0556 71.6789 10.0835C71.6129 10.0013 71.546 9.91956 71.4784 9.83826C72.0642 9.6421 72.7059 9.46337 72.9879 9.93484C72.9861 9.81273 72.9845 9.6906 72.983 9.56847C73.5897 9.64162 74.4798 9.04763 74.3676 9.7356C74.3938 9.69722 74.4201 9.65884 74.4465 9.62046C74.8388 9.72315 74.6516 9.45979 74.7921 9.41516C74.8297 9.40354 75.601 9.47388 75.2844 9.70614C75.364 9.7146 75.4328 9.71522 75.4914 9.70966C75.9769 9.66339 75.7644 9.1741 75.9402 9.13104C76.4369 9.39412 77.218 8.83912 76.9208 9.36774C76.9915 9.37891 77.0624 9.39005 77.1329 9.40123C77.3178 8.99056 77.5865 9.40452 77.8457 9.52509C77.9292 9.52511 78.0129 9.52514 78.0962 9.52523C78.1378 9.38928 78.1795 9.25335 78.2211 9.11743C79.0601 9.65637 78.6422 7.98757 79.1398 9.3754C79.0932 9.46614 79.0473 9.55682 79.0009 9.64758C78.8746 9.7013 78.7485 9.75515 78.6223 9.8091C79.1525 9.79227 79.68 9.77722 80.201 9.76731C80.7597 10.0424 81.0834 9.79154 81.5645 9.83083C81.6902 9.83952 81.8252 9.86375 81.9737 9.91451C82.0414 9.87178 82.1104 9.82894 82.1769 9.78628C82.1281 10.1144 81.854 10.0851 82.3674 10.1963C82.4266 10.4219 82.0883 10.4745 81.9176 10.3098C81.8771 10.2695 82.1889 10.0727 81.8238 10.0909C81.62 10.1008 81.8968 10.2652 81.5946 10.2974C81.5349 10.3041 81.4468 10.3039 81.3189 10.2943C81.3485 10.3483 81.3777 10.4023 81.4066 10.4564C81.3329 10.46 81.2597 10.4637 81.1848 10.4678C81.1088 10.3437 81.0322 10.2198 80.9544 10.0961C80.7961 10.2968 80.7239 10.5653 80.3191 10.5459C80.4204 10.4553 80.2502 10.2093 80.0506 10.2324C80.0594 10.3257 80.0682 10.4191 80.0769 10.5124C79.5998 10.6184 79.7396 10.3287 79.3565 10.5824C79.3086 10.5123 79.2606 10.4422 79.2123 10.3721C79.0227 10.6995 78.2256 10.9927 78.3269 10.5193C78.1434 10.9884 77.6367 10.839 77.4174 10.5023C77.4132 10.5964 77.4092 10.6904 77.405 10.7845C77.3104 10.8135 77.2159 10.8425 77.121 10.8716C77.061 10.8213 77.0012 10.771 76.9411 10.7207C76.8783 10.784 76.8158 10.8472 76.7526 10.9105C76.7012 10.822 76.6499 10.7335 76.5987 10.6449C76.4994 10.768 76.4005 10.8909 76.3008 11.0139C76.2253 10.9469 76.1492 10.8798 76.0735 10.8127C76.0813 10.9261 75.8564 11.0119 75.6264 11.042C75.4531 11.0644 75.2825 11.0569 75.1969 11.0114C75.1449 11.0732 75.0926 11.135 75.0411 11.1966C75.0048 11.1068 74.9685 11.017 74.9324 10.9272C74.8972 11.005 74.8622 11.0827 74.8272 11.1604C74.7245 11.0953 74.6228 11.0301 74.5219 10.9649C74.1825 11.453 74.1377 11.0569 74.0521 11.0679C73.8917 11.0878 73.4072 11.4258 73.3259 11.4217C73.241 11.4168 73.1815 11.2596 73.1127 11.2527C71.9977 11.1462 72.5167 11.5233 72.3194 11.6225C72.218 11.6783 72.1153 11.5424 72.0245 11.5771C71.9686 11.5982 71.8337 11.6583 71.6896 11.7287C71.2934 11.8862 70.823 12.0549 70.779 12.0501C70.6789 12.0399 70.7677 11.293 70.4968 11.5314C70.5541 11.9144 69.8391 11.6428 70.233 12.1207C69.9567 12.1203 69.6864 12.1159 69.4221 12.1091C69.5216 12.5563 69.1566 12.3152 68.8282 12.3896C68.3494 12.495 67.4162 12.9439 67.3805 12.4768C67.2948 12.6001 67.2106 12.7235 67.1284 12.847C67.0956 12.8457 67.0629 12.8452 67.0304 12.8452C66.1865 12.875 65.4887 13.1118 64.7837 13.2243C63.0874 13.4895 61.3156 13.7499 59.563 14.0405C59.053 14.1252 58.5486 14.2081 58.0544 14.2896C57.9469 14.3072 57.9312 14.154 57.8541 14.1665C57.4479 14.2334 56.424 14.5569 55.852 14.6415C55.6694 14.6685 55.5511 14.5406 55.4918 14.5459C55.2918 14.5628 55.3782 14.7459 55.2879 14.7589C55.1432 14.7798 54.3585 14.7565 54.0965 14.7914C53.9665 14.8087 53.8464 14.9934 53.6878 14.977C53.674 14.9759 53.6653 14.813 53.6537 14.8126C53.375 14.8503 53.5686 14.9524 53.4746 14.9644C52.8072 15.0493 52.098 15.1928 51.373 15.3064C51.1903 15.335 50.8951 15.2787 50.7383 15.2993C50.6785 15.3074 50.8075 15.4063 50.6028 15.437C50.5344 15.4471 50.4763 15.2965 50.3957 15.3021C50.0469 15.3271 50.0306 15.8512 49.6541 15.5052C49.4237 15.5605 49.1254 15.6457 48.8005 15.7327C48.4252 15.8424 48.0079 15.9773 47.7284 16.0395C47.6163 16.0643 47.5431 15.9841 47.4356 16.0097C47.3589 16.0279 47.2578 16.1997 47.1377 16.229C47.0188 16.2578 46.7973 16.1666 46.5633 16.2268C46.318 16.2896 46.0253 16.4442 45.9687 16.4572C45.9004 16.4736 45.8277 16.311 45.7596 16.3296C45.5543 16.3845 45.0329 16.6867 44.7612 16.77C44.4705 16.8591 44.271 16.8183 44.169 16.8436C44.075 16.8678 43.9963 17.0374 43.9527 17.0487C43.8849 17.0664 43.8308 16.9017 43.7446 16.9226C43.6027 16.9575 43.4798 17.0962 43.2632 17.146C42.2957 17.3625 41.3288 17.5743 40.0734 17.6582C37.825 17.9146 34.3134 18.1815 31.5995 18.0446C31.1873 18.0311 30.9451 18.1522 30.3286 18.0913C30.0748 18.066 30.1875 17.8891 29.9944 17.9204C29.9086 17.9345 29.9285 18.0749 29.8191 18.0801C29.3284 18.1025 28.7728 17.96 28.5682 17.9572C28.4869 17.9559 28.39 18.1127 28.2195 18.1105C27.5744 18.1026 26.891 18.0734 26.1708 18.04C25.4891 18.0083 24.7992 17.9767 24.1362 17.9615C23.424 17.9454 22.3423 17.976 21.5037 17.9361C20.252 17.8616 19.0957 17.8374 17.3956 17.4869C16.4024 17.2598 15.2633 17.0081 14.2059 16.6963C13.8328 16.5874 13.4586 16.4703 13.0869 16.3445C11.5004 15.805 10.0964 15.305 8.85684 14.9985C7.79421 14.7332 6.71959 14.475 5.5724 14.1372C6.52227 14.6362 7.68963 14.9624 8.78927 15.2689C9.19132 15.3829 9.61787 15.5169 10.0286 15.6641C10.9097 15.9785 11.8611 16.3515 12.9493 16.7351C14.449 17.2697 16.04 17.5982 17.3112 17.8583C20.5109 18.3908 22.5179 18.2625 24.9237 18.4052C25.3121 18.4218 25.7255 18.4382 26.1548 18.4556C27.575 18.5134 29.128 18.567 30.566 18.6461C30.6524 18.6508 30.8193 18.5296 31.0069 18.5432C31.0508 18.5467 31.5233 18.7706 31.6929 18.7719C31.5395 18.3758 32.1706 18.7268 32.3783 18.7141C32.6313 18.6988 33.141 18.4937 33.7427 18.5877C34.2858 18.6719 34.1437 18.8283 34.1735 18.8371C34.3646 18.8919 34.424 18.6432 34.5712 18.6119C35.1334 18.521 38.3948 18.3652 39.1026 18.2577C39.2947 18.2369 39.3149 18.3923 39.3567 18.388C39.4646 18.3767 39.5979 18.2066 39.7545 18.1933C39.8739 18.1833 39.9963 18.2009 40.1079 18.225C40.4108 18.2487 40.6701 18.2707 40.8185 18.2543C41.4589 18.1886 42.4535 17.8324 43.1035 17.6893C43.2875 17.6494 43.3113 17.8105 43.3936 17.7922C43.7634 17.7113 44.6378 17.3122 45.0579 17.2094C45.7464 17.0426 46.4593 16.9771 47.1045 16.7736C47.1625 16.8347 47.2201 16.8959 47.2775 16.9573C47.3254 16.8682 47.3743 16.779 47.4222 16.6901C47.9452 16.6005 48.4488 16.4718 48.9103 16.3609C49.5994 16.2055 50.2233 16.0369 50.8513 15.917C50.9886 15.8909 51.6887 15.8905 51.8024 15.8676C51.895 15.8487 51.9488 15.6541 52.0942 15.6514C52.2929 15.648 52.1796 16.021 52.4771 15.8597C52.5555 15.8166 52.4441 15.6899 52.6043 15.6102C52.6598 15.5834 53.7309 15.301 53.7935 15.2982C53.893 15.295 54.0437 15.5844 54.0702 15.5858C54.2081 15.5933 54.1548 15.3583 54.2365 15.3188C54.4807 15.2009 54.85 15.2896 54.892 15.2772C55.3906 15.128 56.294 14.7433 56.8482 14.7444C56.9252 14.7446 56.9529 14.9222 56.9671 14.9252C57.0576 14.9443 57.067 14.7337 57.145 14.7127C57.5658 14.6016 58.2593 14.5983 58.6938 14.5441C58.7441 14.5376 58.8271 14.4201 58.9169 14.4113C59.426 14.3625 59.2951 14.5506 59.3251 14.5513C59.3906 14.5538 59.4668 14.3837 59.6212 14.3229C59.6317 14.3187 59.6425 14.3151 59.6537 14.3121C60.0959 14.191 60.9507 14.047 61.4317 13.971C61.7872 13.9152 61.8218 14.1119 61.8448 14.1116C61.8946 14.1097 62.0071 13.9272 62.2359 13.8678C62.6795 13.7526 62.6561 13.9164 62.8401 13.8775C62.8553 13.8749 62.8038 13.7282 63.0046 13.678C63.3991 13.5788 64.3121 13.5857 64.7458 13.5135C64.9128 13.4855 64.9294 13.3337 65.1018 13.3052C65.3716 13.2601 66.0376 13.3227 66.0929 13.3134C66.1075 13.3112 66.1149 13.1383 66.2003 13.1251C66.2962 13.1104 66.4034 13.1821 66.4765 13.17C66.6463 13.1421 66.8642 13.0548 67.0581 13.0033C67.2739 12.9406 67.4488 12.9573 67.4098 13.3252C67.4951 13.1592 67.5827 12.9932 67.6731 12.8273C68.4196 12.7385 69.1944 12.5738 70.0528 12.4007C70.2456 12.3618 70.4301 12.4463 70.5976 12.4104C70.7633 12.3774 71.4828 12.0398 71.6098 12.0051C71.6387 11.9979 71.6851 11.9865 71.7447 11.9719C71.992 11.9019 72.6876 11.772 72.7979 11.7716C73.0306 11.7643 73.2919 11.9853 73.3836 11.9252C73.4578 11.8769 73.3677 11.7449 73.5157 11.688C73.7707 11.5891 74.2635 11.7242 74.352 11.7133C74.39 11.7086 74.306 11.6056 74.6613 11.565C74.8542 11.5428 74.9723 11.6537 75.0446 11.6464C75.0682 11.6435 75.0112 11.4519 75.4181 11.4396C75.5196 11.4364 75.6034 11.452 75.6701 11.4732C75.7826 11.5118 75.8434 11.5684 75.8618 11.5669C75.9044 11.5635 75.9913 11.3919 76.162 11.3799C76.5627 11.3527 77.3045 11.4605 77.6779 11.4351C77.7502 11.4303 77.7053 11.2383 77.9938 11.2259C78.1999 11.2172 78.1804 11.3758 78.2575 11.3739C78.3797 11.3707 78.5404 11.1622 78.8073 11.1408C79.1359 11.1099 81.376 11.0779 81.6485 11.1341C81.6673 11.1361 81.6803 11.1381 81.6873 11.1402C81.7813 11.1686 81.8864 11.1638 81.9365 11.2451C81.9036 11.3286 81.871 11.412 81.8375 11.4954C81.7635 11.4502 81.7079 11.4226 81.6662 11.4079C81.5018 11.3375 81.5957 11.5557 81.5224 11.5779C81.3957 11.6158 80.8758 11.6158 80.7528 11.6995C80.7098 11.7294 80.829 11.8925 80.5928 12.0027C80.3391 12.121 80.1917 11.8258 80.1249 12.2548C79.7025 11.8257 79.3815 12.3565 79.8367 12.4445C79.9895 12.4757 80.9901 12.4574 81.7348 12.4715C82.3141 12.4717 82.7739 12.4704 82.9623 12.4688C83.3569 12.4639 84.0827 12.2985 84.5662 12.31C84.8509 12.3158 85.5619 12.3112 85.5393 12.5363C85.8002 12.5554 85.517 12.3423 85.5706 12.3094C85.6783 12.2403 86.4957 12.3688 86.6422 12.3593C87.4015 12.3089 88.3497 12.0396 89.1005 12.3102C89.0666 12.3706 89.0329 12.431 88.9994 12.4915C88.8399 12.6037 88.0617 12.461 87.9789 12.7505C89.106 12.7275 90.2453 12.7123 91.3771 12.7016C91.3502 12.4567 92.7768 12.4486 92.8355 12.5592C92.8115 12.6779 92.7876 12.7965 92.7638 12.9151C91.9573 12.471 92.0476 13.065 91.4983 12.7542C91.2807 12.7517 91.3485 12.9469 91.243 12.9851C90.1753 13.3659 91.2182 12.5832 90.406 12.7676C90.6563 13.0486 89.9892 13.1603 89.6882 13.2008C89.6185 13.2094 88.7315 13.1513 88.6231 13.1582C88.0298 13.1936 87.0199 13.3717 86.4401 13.2334C85.9806 13.2283 85.7368 13.4387 85.3321 13.5004C85.0207 13.5478 85.1106 13.4022 84.9611 13.4064C84.6593 13.4149 84.58 13.8519 84.3564 13.258C84.1597 13.3426 83.9541 13.4283 83.7584 13.5144C83.7533 13.4208 83.7481 13.3271 83.743 13.2335C83.6131 13.2407 83.4877 13.2478 83.3588 13.2555C83.3271 13.351 83.2959 13.4464 83.2629 13.542C82.8477 13.4396 83.0021 13.204 82.9091 12.9439C82.8184 12.9315 82.7278 12.9191 82.6348 12.9071C82.5771 13.1151 82.5214 13.3231 82.4622 13.5313C82.2521 13.537 82.0339 13.5435 81.8043 13.5499C81.6359 13.5526 81.4573 13.5575 81.2738 13.5639C81.2419 13.4728 81.2109 13.3815 81.179 13.2904C81.1858 13.3836 81.1926 13.4768 81.1994 13.5699C80.5672 13.6408 79.8891 13.7268 79.2021 13.8166C79.0365 13.9837 80.1444 13.986 80.2214 13.9888C80.6914 13.9904 81.7999 13.7518 81.8018 14.0891C81.8124 14.0764 81.8242 14.0644 81.8368 14.053C82.2008 13.8208 82.9977 13.8356 83.2559 14.105C82.8635 14.1111 82.4596 14.1213 82.0103 14.1332C82.0323 14.2437 82.054 14.3541 82.0758 14.4646C81.9939 14.4069 81.9202 14.358 81.8538 14.3176C81.5484 14.0631 81.4421 14.1405 81.061 14.5399C81.0478 14.3907 81.0345 14.2416 81.0213 14.0924C80.7313 14.6391 80.0179 13.8206 80.0608 14.4625C79.8652 14.4293 79.6671 14.3967 79.4678 14.3646C79.0509 14.4866 79.7743 14.9068 78.0741 14.891C77.9558 14.89 77.9631 14.7245 77.7879 14.7544C77.7369 14.7632 77.473 15.031 76.9026 15.066C76.8138 15.0713 76.7918 14.9308 76.6977 14.9224C76.4806 14.9021 76.079 15.2256 76.2275 14.7502C76.1404 14.7456 76.0654 14.745 76.0018 14.7475C75.3796 14.7739 75.6988 15.0613 75.4604 15.2189C75.2896 15.3343 75.3008 15.0612 75.1558 15.1362C74.9864 15.2285 75.1125 15.4897 74.4386 15.4278C74.5091 15.4023 74.5813 15.3767 74.6551 15.3511C74.6102 15.2808 74.5655 15.2105 74.521 15.1402C74.1673 15.3535 74.1815 15.0913 74.0627 15.5232C73.7996 15.3646 73.5944 15.3733 73.3218 15.4463C72.8225 15.5912 73.1472 15.9885 72.5569 15.4917C72.5533 15.4984 72.5497 15.5052 72.5461 15.512C72.3802 15.6307 72.2148 15.7473 72.0501 15.8621C71.6983 15.751 71.9057 15.4829 71.438 15.5272C71.8777 15.8939 70.8844 15.9155 70.8024 16.3248C70.7705 16.2352 70.7387 16.1454 70.707 16.0557C70.6103 16.0719 70.5148 16.0875 70.4207 16.1027C70.4323 16.177 70.444 16.2512 70.4557 16.3255C70.3208 16.2902 70.1888 16.254 70.0596 16.217C69.9804 16.3047 69.9023 16.3921 69.8254 16.4791C69.6571 16.3456 69.4935 16.2111 69.3338 16.0759C69.2465 16.078 69.1607 16.0799 69.0762 16.0816C69.1189 16.1885 69.1618 16.2953 69.2047 16.4021C69.0916 16.3811 68.9809 16.3597 68.8727 16.3381C69.0214 16.5017 68.9706 16.7267 68.6621 16.7679C68.4145 16.8016 68.6238 16.3799 68.1356 16.6191C68.1073 16.6345 68.0813 16.8641 67.7584 16.9957C67.7007 17.014 67.6376 17.0313 67.5688 17.0471C66.7492 17.2335 67.1269 16.9696 66.9797 16.9867C66.9527 16.9898 66.7363 17.1628 66.5328 17.2132C66.4156 17.2422 66.2908 17.1484 66.2751 17.1511C66.2061 17.1665 66.2093 17.3249 66.1138 17.3448C65.8734 17.3941 65.5538 17.3635 65.3347 17.4046C65.236 17.4229 65.1553 17.5294 65.1123 17.5371C65.0441 17.5486 64.9357 17.4214 64.8676 17.4325C64.6133 17.4748 64.3127 18.0014 64.0891 17.3739C63.947 18.0077 63.3269 17.3746 63.4302 17.7673C62.7674 17.722 61.1367 18.5438 61.0509 17.8709C60.7978 18.5141 60.7459 18.0958 60.5935 18.1357C60.4441 18.1747 60.509 18.2491 60.4372 18.2836C60.4257 18.289 60.4107 18.2935 60.391 18.2969C60.0466 18.3558 59.7116 18.3756 59.3706 18.4438C59.4052 18.3416 59.4401 18.2393 59.4748 18.1371C59.11 18.182 59.2792 18.3682 58.9222 18.4848C58.2686 18.698 58.5144 18.4706 58.3662 18.2521C58.4404 18.4772 57.6442 18.6052 57.5553 18.5921C57.5034 18.5836 57.652 18.2425 57.1875 18.4391C57.2332 18.5251 57.279 18.611 57.3247 18.6969C57.0756 18.6182 56.511 18.9013 56.4009 18.8921C56.3504 18.8877 55.9478 18.2019 55.8386 18.8336C55.7919 18.7479 55.7453 18.6622 55.6987 18.5765C55.4659 18.7396 55.2333 18.9028 55.0013 19.0657C54.9268 18.9093 54.8513 18.7531 54.7759 18.5969C54.6941 18.6139 54.613 18.6307 54.5325 18.6475C54.6163 18.7827 54.7004 18.9178 54.7848 19.0528C54.2701 19.0908 53.7011 19.4491 53.4965 18.9768C53.4077 19.0905 53.3164 19.2048 53.2284 19.3183C53.1255 19.1683 53.0185 19.0192 52.9146 18.8694C52.4203 19.014 52.4341 19.1255 52.1232 19.3711C52.1108 19.2401 52.0984 19.1091 52.086 18.9781C51.8682 19.2099 51.4328 19.4725 51.0558 19.5705C50.8769 19.6169 50.5305 19.5006 50.4861 19.5257C50.4497 19.5506 50.1322 20.332 49.9678 19.7382C49.8134 19.8345 49.667 19.8951 49.5346 19.9313C49.3127 20.0106 49.1313 19.887 48.99 19.9207C48.8674 19.9503 48.8393 20.1064 48.6976 20.1522C48.4928 20.2183 48.2567 20.1983 48.1294 20.2376C48.0565 20.2605 48.0748 20.4037 48.0245 20.4198C47.7846 20.4975 47.8964 20.321 47.6356 20.3916C47.6113 20.399 47.4586 20.6147 47.2286 20.6463C47.1011 20.6638 46.7232 20.5517 46.693 20.5594C46.5614 20.5944 46.7626 20.9513 46.198 20.6188C46.2288 20.6884 46.2596 20.758 46.2904 20.8276C45.7618 21.1494 45.5832 20.848 45.4591 20.8535C45.4433 20.8553 45.3277 21.0149 45.2346 21.0183C45.0781 21.0235 44.9779 20.8652 44.9425 20.8653C44.819 20.8661 44.4342 21.0331 44.1219 20.9258C44.2978 21.404 43.3302 21.7898 42.9757 21.2734C42.8088 21.4189 42.6326 21.5646 42.4485 21.7093C42.3401 21.6324 42.2319 21.555 42.1241 21.477C42.0808 21.5783 42.0356 21.6798 41.9898 21.7811C41.6449 21.6245 41.2841 21.4644 40.902 21.2955C40.8991 21.5028 40.8952 21.7102 40.8905 21.9176C40.7826 21.9043 40.6712 21.8903 40.5549 21.8756C40.471 21.7456 40.3881 21.6151 40.3063 21.484C40.3006 21.4564 40.2949 21.4288 40.2891 21.4013C40.2527 21.4349 40.2161 21.4688 40.1772 21.5032C40.1763 21.6221 40.1757 21.741 40.1754 21.8599C39.9455 22.0189 40.0174 20.8711 39.481 21.9351C39.362 21.8555 39.2322 21.7776 39.098 21.7001C39.0154 22.1685 38.7078 21.9294 38.4752 22.0081C38.3162 22.063 38.3391 22.2424 38.1111 22.2719C37.8756 22.3018 37.8646 22.1288 37.8469 22.1296C37.6567 22.1391 37.5209 22.3056 37.3776 22.2888C37.3567 22.2862 37.2791 22.0878 37.0993 22.091C36.9204 22.094 36.8237 22.3215 36.5535 22.3015C36.4118 22.2916 36.3584 22.1222 36.2383 22.1156C35.6612 22.0828 35.1146 22.9874 34.655 21.9678C34.5593 22.1044 33.8973 22.5894 33.6058 22.5696C33.1486 22.5387 33.325 22.3304 33.1452 22.2971C33.1234 22.2918 32.9733 22.3642 32.6117 22.3569C32.5456 22.3555 32.5623 22.4703 32.5528 22.4719C32.1087 22.4763 31.2914 22.3881 30.8176 22.3685C30.7768 22.3665 30.5627 22.6862 30.1903 22.251C29.6509 22.5644 28.6392 21.8612 27.9256 22.3208C27.8238 22.3281 27.7114 22.2102 27.669 22.2129C27.304 22.2372 27.414 22.59 26.6017 22.0522C26.6624 22.2319 26.4641 22.3854 26.1837 22.3613C26.0985 22.354 26.0428 22.335 26.0058 22.3096C25.8664 22.2095 26.0046 22.0084 25.7448 22.0199C25.7412 22.1133 25.7375 22.2066 25.7339 22.3C24.997 22.0194 24.8302 22.4126 24.0736 22.3827C23.7999 22.3716 23.4033 22.1465 23.339 22.1429C23.3158 22.1425 22.9998 22.3533 22.9726 22.3536C22.8093 22.3526 22.721 22.2443 22.5815 22.2369C22.1156 22.2119 21.529 22.4724 21.6627 21.947C21.5233 22.0516 21.3886 22.1563 21.2472 22.2604C20.7815 21.6635 20.3408 22.417 20.2696 21.8586C20.1707 21.9657 20.0635 22.072 19.9614 22.1784C18.9874 22.066 18.149 22.019 16.452 21.638C15.4312 21.3721 13.9242 21.0182 12.4173 20.4913C12.3349 20.5636 11.9861 20.4782 11.6699 20.3665C11.4324 20.2829 11.2328 20.1887 11.2158 20.1688C11.0532 19.9771 11.3959 19.6894 10.9589 19.6251C10.8567 19.7685 10.7547 19.9118 10.6529 20.0553C10.1448 19.9294 10.439 19.8568 10.2897 19.6803C10.2054 19.6721 10.185 19.8047 10.0789 19.7766C9.48678 19.6154 8.49105 19.2847 8.0944 19.1926C8.0108 19.1718 8.05613 19.0568 8.03071 19.0496C7.98909 19.0391 7.91053 19.0756 7.83133 19.1019C7.74628 19.1118 7.65711 19.1157 7.57114 19.0946C6.28773 18.7625 4.44629 18.3354 2.38272 17.5923C2.38221 17.5893 2.38078 17.5861 2.37855 17.5826C2.37038 17.5709 2.40642 17.4286 2.39476 17.4178C2.37939 17.4036 2.28999 17.5035 2.25667 17.4834C2.22598 17.4648 2.22617 17.3508 2.18535 17.329C1.99849 17.2272 1.6079 17.3563 1.321 16.9953C1.30179 16.9641 1.00288 16.3421 0.99375 16.3035C0.959418 16.0707 1.33646 15.7362 0.797941 15.3585C1.32468 15.1057 1.22618 14.5678 0.542848 14.2759C0.890579 14.2268 1.25409 14.1895 1.61008 14.1623C1.61723 14.1012 1.62439 14.0401 1.63155 13.979C1.3436 13.6417 1.00977 13.5089 0.511881 13.4583C0.529915 13.4021 0.547577 13.3458 0.565887 13.2897C1.02764 13.0246 1.59343 13.0223 1.98796 12.6802C1.50656 12.3326 0.983176 12.0024 0.452335 11.696C0.481562 11.652 0.509536 11.6081 0.538678 11.5643C0.804595 11.4558 1.39513 11.4285 1.62746 11.3432C2.52593 11.0137 0.902489 10.966 1.18396 10.7415C2.10694 10.8173 3.03344 10.9435 3.89347 11.1637C4.04049 10.9037 0.497085 9.95844 0.512718 9.46829C0.823403 9.4411 1.13466 9.42129 1.44632 9.40764C1.31963 9.25445 1.19063 9.10233 1.05807 8.95133C1.09952 8.90846 1.14176 8.86574 1.18312 8.82306C1.7262 8.74705 2.27249 8.6888 2.83251 8.65405C1.16348 8.55082 0.452346 8.48684 0 7.35353C0.0493801 7.32488 0.103652 7.29654 0.152539 7.2684C0.560506 7.96347 2.24854 7.83534 3.22516 7.8576C3.06065 7.61935 2.2136 7.67653 2.05447 7.54056C2.00842 7.50033 2.19493 7.3748 2.08725 7.29061C1.81092 7.06207 0.513938 6.74637 0.707285 6.52622C0.84565 6.36029 2.99412 6.33145 3.44121 6.4424C2.45915 6.0225 1.48488 5.85865 0.437846 5.50268C1.1227 5.06775 1.72719 4.52923 2.9608 4.64635C3.36395 4.43131 0.798581 3.87074 0.706984 3.76767C1.1893 3.64388 1.65188 3.53212 2.12678 3.4317C1.73338 3.43573 1.34131 3.44758 0.939751 3.4678C0.940559 3.42092 0.941362 3.37403 0.942158 3.32715C1.98936 3.15892 2.92759 2.83507 4.19585 3.06279C4.19204 2.8085 3.43266 2.71995 3.08484 2.68051ZM86.8018 13.792C86.8213 13.9971 86.5135 13.9717 86.3312 13.9732C86.3591 14.0099 86.3871 14.0465 86.4153 14.0831C86.0396 14.0546 85.3389 14.0005 85.3295 14.4005C85.0671 14.4602 85.1713 14.109 85.0859 14.0728C85.0488 14.0585 84.7154 14.2741 84.4334 14.0414C84.3679 14.0454 84.3045 14.0495 84.2413 14.0535C84.2349 14.1849 84.2286 14.3162 84.2225 14.4475C84.1225 14.2934 84.0314 14.139 83.9296 13.9853C84.8594 13.9081 85.8265 13.846 86.8003 13.792C86.8008 13.792 86.8013 13.792 86.8018 13.792ZM77.2324 14.6473C76.8531 14.6133 76.2606 14.5574 76.4146 14.9018C76.6524 14.8582 76.8881 14.8145 77.122 14.7709C77.1588 14.7297 77.1958 14.6885 77.2324 14.6473ZM40.939 20.9551C40.7176 20.83 40.5077 20.8154 40.267 20.8374C40.1643 20.8538 40.0571 20.9503 39.8609 20.9332C39.8689 21.0073 39.877 21.0814 39.8851 21.1555C39.9644 21.0267 40.1378 21.0241 40.2782 21.0223C40.5222 21.0107 40.7515 20.9918 40.939 20.9551ZM95.4999 12.3989C95.55 12.4296 95.5958 12.4603 95.6411 12.4912C95.4216 12.8781 95.4022 12.5941 95.1431 12.6213C95.1271 12.6231 95.1287 12.715 95.1231 12.7153C95.0595 12.7188 95.0031 12.6061 94.9435 12.6056C94.8281 12.6048 94.7285 12.7133 94.5159 12.7035C94.3482 12.6957 94.3533 12.5201 94.2923 12.5231C94.2682 12.5247 94.1373 12.6357 93.9682 12.7264L94.0978 12.7273C93.905 12.8284 93.674 12.9066 93.4969 12.7995C93.216 12.6281 93.5645 12.5117 94.0966 12.4385L93.9736 12.4376C94.6284 12.355 95.4357 12.3711 95.4999 12.3989ZM97.7712 12.8543C97.6965 12.8558 97.6175 12.857 97.5343 12.8578C97.7777 12.5881 97.3102 12.6323 96.8395 12.6158C96.8877 12.364 97.7581 12.4915 98 12.4102C97.9285 12.5583 97.8527 12.7064 97.7712 12.8543ZM89.5424 12.1638C89.7957 12.1337 89.7595 12.4579 89.7496 12.5544C89.6678 12.5555 89.587 12.5567 89.507 12.5579C89.5188 12.4265 89.5306 12.2951 89.5424 12.1638ZM91.4501 12.029C91.3761 12.2494 90.8188 12.3511 90.5639 12.3722C90.5521 12.3724 90.6239 12.2509 90.4389 12.2643C90.3785 12.2684 89.8439 12.7143 89.9567 12.2147C90.4496 12.1518 90.9577 12.0899 91.4493 12.029C91.4496 12.029 91.4498 12.029 91.4501 12.029ZM92.0101 12.154C91.9076 12.2239 91.8076 12.2937 91.7005 12.3637C91.6449 12.261 91.5897 12.1583 91.5347 12.0556C91.6522 12.0285 91.7781 12.0013 91.8921 11.9743C91.9313 12.0342 91.9706 12.0941 92.0101 12.154ZM11.9739 17.6092C11.9602 17.7216 11.9468 17.8341 11.9336 17.9466C12.0017 18.0435 12.6336 17.7584 12.5156 17.6176C12.3316 17.6142 12.1512 17.6113 11.9739 17.6092ZM10.2827 16.7568C10.2191 16.676 10.1561 16.5957 10.0934 16.5158C9.941 16.662 9.79113 16.8094 9.64422 16.9583C9.98892 17.2033 10.3797 17.4964 10.4924 16.9508C10.5872 16.9841 10.6832 17.0181 10.7802 17.0527C10.6225 17.2389 10.6067 17.3127 10.8129 17.5406C10.9765 17.2619 11.1869 17.5098 11.5311 17.5608C11.3047 17.4587 11.0847 17.359 10.8705 17.2624C10.8894 17.2097 10.9083 17.157 10.9273 17.1043C11.4181 17.303 10.9143 16.7424 10.5312 16.8444C10.5314 16.7654 10.5315 16.6865 10.5316 16.6076C10.448 16.657 10.3649 16.7067 10.2827 16.7568ZM51.9912 16.8208C51.9111 16.7797 51.8318 16.7384 51.7533 16.6969C51.6387 17.4687 52.0325 16.6786 52.5296 17.169C52.3157 16.7628 52.8966 16.6621 52.9248 16.6259C52.8277 16.4944 52.7312 16.3628 52.6353 16.231C52.4213 16.4276 52.2049 16.6246 51.9912 16.8208ZM49.9444 16.7142C50.1713 16.9439 49.6045 17.1412 49.0622 17.2292C48.9293 17.2499 48.7974 17.2604 48.7082 17.2559C48.6253 17.2516 48.4449 17.0827 48.3895 17.12C48.3687 17.2 48.3484 17.2799 48.3277 17.36C48.2354 17.1157 47.6225 17.5435 47.3754 17.7433C47.3286 17.6582 47.2817 17.5732 47.2345 17.4882C47.1413 17.5478 47.0492 17.6074 46.955 17.6676C46.9466 17.5739 46.9383 17.4802 46.9299 17.3866C46.8777 17.5138 46.8263 17.641 46.774 17.7684C46.4957 17.9623 46.5683 17.4234 46.3723 17.6329C46.1537 17.8659 46.6489 18.0584 46.6856 18.252C46.8834 18.1526 47.3227 17.9329 47.5227 17.8819C47.638 17.853 47.5877 18.2241 47.9904 17.7204C48.118 17.7891 48.2422 17.8591 48.3655 17.9297C48.5241 17.7431 48.6804 17.5587 48.8333 17.3772C48.8908 17.4992 48.9479 17.6214 49.0042 17.7438C49.0128 17.7502 49.0702 17.7 49.1325 17.6317C49.2915 17.5121 49.4716 17.341 49.443 17.285C49.7163 17.4886 50.1709 17.4473 50.6329 17.3686C50.6653 17.2899 50.6925 17.2121 50.7228 17.1337C50.31 17.3717 50.5672 17.088 50.4094 16.9807C50.3199 16.9185 50.0564 16.8132 49.9444 16.7142ZM15.4595 18.3681C14.5714 18.4751 15.143 18.3542 14.2403 18.1084C14.2586 18.2888 14.2769 18.4689 14.297 18.6492C14.8347 18.4795 15.4902 18.847 15.4604 18.3683C15.4601 18.3682 15.4598 18.3682 15.4595 18.3681ZM7.92918 16.5945C8.27565 16.5897 8.23325 16.3705 8.52427 16.3292C8.56407 16.3192 8.61228 16.3144 8.67197 16.3171C8.67215 16.3172 8.67233 16.3172 8.67251 16.3172C8.62767 16.3009 8.58298 16.2849 8.53922 16.2694C8.35102 16.2075 8.16191 16.1462 7.97151 16.0853C7.95781 16.2551 7.94353 16.4248 7.92918 16.5945ZM33.3285 19.8971C33.7707 19.9592 33.6691 19.8308 34.0795 20.0795C34.655 19.7402 34.1606 19.8036 34.1504 19.5151C34.02 19.6045 33.8828 19.6937 33.7566 19.7821C33.427 19.5216 33.7289 19.3771 33.7273 19.3512C33.727 19.3512 33.7268 19.3512 33.7265 19.3512C33.7239 19.2646 33.7341 19.2461 33.6097 19.1973C33.5185 19.4307 33.4207 19.664 33.3285 19.8971ZM35.1807 19.4699C35.0405 19.6691 34.986 19.9191 35.3884 20.0197C35.3886 20.0196 35.3889 20.0196 35.3892 20.0196C35.402 19.5902 35.7965 19.9125 35.9792 19.8705C36.0224 19.8208 36.0651 19.7711 36.1072 19.7214C35.7951 19.6407 35.4831 19.5568 35.1807 19.4699ZM41.5956 18.4353C41.6716 18.9021 41.2901 19.0067 41.8991 19.3532C42.0013 19.3282 42.1039 19.3024 42.2019 19.2767C42.2499 19.163 42.2974 19.0491 42.3436 18.9352C43.7075 19.5398 43.8205 18.0518 41.8364 18.9647C41.8362 18.9651 41.8359 18.9655 41.8356 18.9658C41.7545 18.7893 41.6762 18.6122 41.5956 18.4353ZM39.5619 18.6885C39.5773 18.9366 39.5931 19.1847 39.6092 19.4328C39.3559 18.8575 39.1616 19.4571 38.6461 19.0954C38.6139 19.1755 38.5808 19.2556 38.5468 19.3359C38.3685 19.1991 36.5056 19.3415 36.9404 19.6796C37.1381 19.8296 37.4997 19.5652 37.5321 19.5666C37.6409 19.574 37.8169 19.7697 37.9997 19.7363C38.1085 19.7165 38.3044 19.441 38.5117 19.416C39.0033 19.357 39.802 19.9315 40.1021 19.2762C40.1297 19.337 40.1567 19.398 40.1831 19.4591C40.1949 19.4707 40.2068 19.4823 40.2186 19.4938C40.8996 19.3959 40.6448 19.179 41.2453 19.3926C41.354 18.7526 40.7903 18.8857 40.1533 18.9702C39.9106 19.0265 39.6519 19.0968 39.7546 18.6288C39.7544 18.6288 39.7542 18.6288 39.754 18.6288C39.6917 18.6481 39.6279 18.668 39.5619 18.6885ZM26.9447 19.4796C26.9273 19.2673 26.3981 19.5754 26.538 19.0725C26.3989 19.207 26.258 19.3413 26.1154 19.4754C26.0783 19.5112 26.0414 19.5471 26.0045 19.5829C26.004 19.6302 26.0034 19.6774 26.0029 19.7246C26.0373 19.7183 26.0718 19.7121 26.1065 19.7058C26.2453 19.6816 26.3826 19.6573 26.5183 19.6327C26.5162 19.7075 26.5142 19.7823 26.5121 19.8572C26.7679 19.5964 27.8238 19.7478 27.7786 20.0111C27.8367 19.9007 27.8961 19.7904 27.9574 19.6801C28.4602 19.999 28.905 19.6852 29.4446 19.9923C29.4883 19.9003 29.5353 19.8083 29.5802 19.7162C29.6075 19.7915 29.6347 19.8669 29.662 19.9422C29.8679 19.9548 30.0631 19.9668 30.2671 19.9784C30.9346 19.6836 29.6603 19.2804 29.4991 19.3203C29.4778 19.3261 29.4777 19.52 29.3516 19.5482C29.131 19.5992 27.8439 19.3752 27.4651 19.4897C27.4657 19.3611 27.4664 19.2325 27.467 19.1039C27.2958 19.2295 27.1145 19.3545 26.9447 19.4796ZM44.308 18.4119C44.366 18.5329 44.4242 18.6538 44.4824 18.7747C44.9495 18.5329 45.2738 18.5723 45.0517 18.1804C45.0514 18.1805 45.0512 18.1806 45.0509 18.1806C44.8071 18.2577 44.5599 18.335 44.308 18.4119ZM78.8105 12.3893C78.7715 12.1318 78.5373 12.0583 78.265 12.2745C78.287 12.3481 78.309 12.4218 78.3309 12.4954C78.4594 12.2592 78.6899 12.6229 79.1475 12.5244C79.1342 12.3942 79.1209 12.2641 79.1076 12.1339C79.0087 12.2189 78.9099 12.304 78.8105 12.3893ZM43.8625 18.4543C43.6767 18.338 43.3316 18.8906 43.6284 18.8505C43.8554 18.8193 43.9631 18.5167 43.8625 18.4543ZM6.43774 15.9838C6.5367 16.0347 6.63445 16.0854 6.732 16.136C6.81072 16.04 6.89015 15.9441 6.96892 15.8481C6.96868 15.8481 6.96844 15.848 6.9682 15.848C6.79214 15.8933 6.61663 15.9389 6.43774 15.9838ZM31.8687 19.9391C32.2508 19.9208 32.643 19.9 33.04 19.8759C33.0425 19.8033 33.045 19.7306 33.0475 19.658C32.6483 19.9305 32.5024 19.6461 32.4069 19.6299C32.4073 19.6298 32.4077 19.6298 32.4081 19.6298C32.1043 19.5758 31.846 19.5351 31.5608 19.449C31.6635 19.6125 31.7668 19.7759 31.8687 19.9391ZM30.5475 19.479C30.6114 19.9921 30.6818 20.0538 31.2862 19.6942C31.2629 19.6311 31.2396 19.5679 31.2162 19.5047C30.9049 19.5419 30.73 19.6589 30.7843 19.3918C30.7062 19.4209 30.6272 19.45 30.5475 19.479ZM36.7333 19.4451C36.6406 19.2904 36.0573 19.5003 36.0985 19.5791C36.1093 19.6127 36.9092 19.7522 36.7333 19.4451ZM82.6889 11.9473C82.568 11.9178 82.4449 11.8885 82.319 11.8595C82.4798 11.7928 82.6328 11.7268 82.7895 11.6609C82.7555 11.7564 82.722 11.8519 82.6889 11.9473ZM83.9399 11.1432C84.0268 11.2044 83.7784 11.678 84.2844 11.7725C83.92 11.7995 83.5593 11.8287 83.1974 11.8604C83.3612 11.7758 83.5287 11.6915 83.695 11.6078C83.6583 11.4771 83.6228 11.3464 83.5843 11.2158C83.7006 11.1915 83.8251 11.1669 83.9399 11.1432ZM84.3503 11.4615C84.1378 11.1196 85.1758 11.0483 85.2822 11.0886C85.3042 11.098 85.4153 11.3598 85.4558 11.4155C85.3015 11.4213 85.1354 11.4279 84.9829 11.4343C85.0376 11.5158 85.093 11.5974 85.1491 11.679C84.969 11.7145 84.7832 11.7508 84.6008 11.7875C84.6782 11.7 84.75 11.6129 84.8255 11.5257C84.6701 11.5038 84.5064 11.4826 84.3503 11.4615ZM80.2005 11.8289C80.3321 11.8253 80.4638 11.8221 80.5936 11.8193C80.5563 11.6913 80.5187 11.5633 80.4809 11.4353C80.4021 11.4424 80.3249 11.4495 80.2456 11.4568C80.2303 11.5809 80.2156 11.7048 80.2005 11.8289ZM82.8577 11.4598C82.7083 12.1006 82.0836 10.7618 82.7389 11.2297C82.8049 11.2774 82.8717 11.3979 82.8577 11.4598ZM85.679 11.1498C86.0788 10.6771 86.0145 11.6937 85.6179 11.4098C85.5973 11.3947 85.6504 11.1847 85.679 11.1498ZM88.8205 11.0588C88.8552 11.0616 88.9149 11.3889 89.2429 11.0715C89.2992 11.108 89.3502 11.1447 89.4044 11.1813C89.2815 11.3352 88.2026 11.4448 88.3475 11.117C88.5085 11.1089 88.6551 11.0514 88.8205 11.0588ZM87.7527 9.86404C87.5937 9.87653 87.4243 9.88943 87.2675 9.90224C87.3222 10.0038 87.3773 10.1055 87.4329 10.2071C87.3537 10.2369 87.2778 10.2667 87.199 10.2965C87.0554 10.1225 86.9152 9.94859 86.7782 9.77471C87.1229 9.73735 87.4808 9.70071 87.8304 9.66511C87.8043 9.73142 87.7784 9.79773 87.7527 9.86404ZM83.4706 9.76194C83.7826 9.87386 84.1539 9.7171 84.6526 9.71795C84.6528 9.71826 84.6531 9.71858 84.6533 9.71889C84.678 9.71935 84.7271 9.8587 84.8082 9.86101C84.8724 9.86088 86.233 9.65922 86.1291 9.90337C85.6107 10.134 85.4022 9.81553 85.299 10.3521C85.2703 10.2408 85.2409 10.1295 85.2103 10.0183C84.7013 9.84299 84.5697 10.2384 84.3 10.3934C84.2972 10.3088 84.2944 10.2242 84.2916 10.1396C84.1021 10.1399 83.9167 10.1406 83.7294 10.142C83.7588 10.1962 83.7893 10.2503 83.818 10.3046C83.7514 10.308 83.6842 10.3116 83.6196 10.3151C83.4454 10.0734 83.2374 10.0268 83.4706 9.76194ZM88.4898 9.98924C88.6309 9.3438 90.1011 9.76077 90.7717 9.61978C90.4303 10.01 89.8806 9.7504 89.4917 9.7522C88.7531 9.75609 89.2674 9.9849 89.1436 10.0905C89.0778 10.1428 88.6611 9.73802 88.4898 9.98924ZM82.3546 9.94365C82.7244 9.97094 82.9171 9.81056 83.2432 10.0273C83.2196 10.0756 83.1963 10.124 83.1733 10.1723C83.0664 10.1346 82.1784 10.0573 82.3546 9.94365ZM91.7609 9.77816C91.0343 9.55414 91.403 10.1321 91.024 9.70012C91.2701 9.66993 91.5074 9.64003 91.7594 9.61021C91.7599 9.66619 91.7604 9.72218 91.7609 9.77816ZM42.4912 16.277C42.1709 16.3271 41.7893 16.2779 41.6326 16.5497C41.8629 16.5485 42.0934 16.544 42.3183 16.5383C42.3763 16.4513 42.4355 16.3639 42.4912 16.277ZM50.4857 12.1335C50.4052 12.0906 50.1737 12.3121 50.1429 12.3182C50.0898 12.3289 50.0878 12.2432 50.0826 12.2217C49.7431 12.3053 50.1126 12.4984 49.8664 12.6056C49.8271 12.6232 49.2 12.6152 48.9578 12.6715C48.7144 12.7288 48.4674 12.7706 48.2876 12.7995C48.1937 12.8146 48.1167 12.8276 48.0682 12.8382C47.8328 12.8885 47.4348 13.1682 47.0528 13.2623C46.8961 13.3004 46.805 13.1596 46.6469 13.1991C45.6265 13.4532 43.663 14.1656 42.7183 14.2635C42.4861 14.2888 42.2271 14.1323 42.1107 14.173C42.0319 14.2657 41.9502 14.3587 41.8695 14.4509C41.4495 13.842 41.4677 14.4512 41.1552 14.567C40.9593 14.6391 40.832 14.4542 40.8064 14.4585C40.6258 14.4882 40.55 14.5939 40.407 14.6263C40.2476 14.6626 40.0055 14.5919 39.9495 14.6115C39.9313 14.6184 39.9592 14.6934 39.8975 14.7679C39.8436 14.8351 39.7239 14.8998 39.4401 14.9233C38.8298 14.975 38.2097 15.0352 37.5675 15.0963C37.8729 15.871 37.9982 15.3008 38.2518 15.2397C38.3211 15.2231 38.2924 15.3555 38.3525 15.3423C38.5211 15.3059 38.8308 15.1413 38.9731 15.1559C39.1266 15.1716 39.1082 15.4713 39.2834 15.343C39.2923 15.3364 39.2498 15.2178 39.2918 15.1929C39.5473 15.0446 39.7092 15.0607 39.9172 15.0912C40.0696 15.1106 40.2517 15.1313 40.4955 15.1056C40.929 15.0951 43.2458 14.4914 43.3349 14.5403C43.8558 14.8695 41.3755 15.41 41.0411 15.3963C40.9328 15.4003 41.0244 15.2503 40.9245 15.2387C40.8824 15.234 40.5497 15.5441 40.1571 15.5976C40.0949 15.6061 40.0246 15.6113 39.949 15.6133C39.5421 15.6175 38.877 15.5633 38.529 15.6127C35.0417 16.1484 31.5601 15.9694 28.1035 15.8791C28.0267 15.877 27.9272 16.0286 27.6893 16.0215C27.2077 16.0066 26.7431 15.9888 26.251 15.9672C23.5192 15.8122 20.8664 15.8052 17.8972 15.28C16.6134 14.9889 15.243 14.6929 13.9238 14.2507C13.8942 14.241 13.8646 14.2312 13.8348 14.2215C12.9075 13.9178 11.9836 13.7089 11.1309 13.3051C10.9813 13.3737 10.8329 13.4433 10.686 13.5141C11.0012 13.5208 11.4492 13.9455 11.4959 13.9664C11.5129 13.9736 11.6647 13.8921 11.8409 13.962C12.0887 14.0599 12.1622 14.2039 12.1829 14.2113C12.2471 14.2349 12.2448 14.1095 12.306 14.1322C12.7628 14.303 13.1337 14.404 13.5691 14.5576C13.6149 14.5737 13.6579 14.5908 13.6985 14.6084C14.1146 14.7864 14.3201 15.0187 14.7269 14.9145C14.7431 15.0168 14.7594 15.1191 14.7766 15.2215C15.1791 14.9342 16.8407 15.3878 17.4791 15.5434C17.6824 15.596 17.61 15.748 17.6784 15.7634C17.701 15.7684 17.7201 15.7133 17.8059 15.6817C17.9014 15.6558 18.0703 15.6541 18.3618 15.7232C18.6661 15.794 18.7221 15.9573 18.8739 15.9724C18.9582 15.9801 18.9609 15.8241 19.0777 15.8382C19.7442 15.9159 20.2647 16.0067 20.8937 16.0798C21.0676 16.0997 21.0627 16.229 21.1026 16.23C21.2471 16.2337 21.5154 16.0311 21.8812 16.0526C22.4858 16.0895 23.6831 16.1467 24.1691 16.2739C24.2414 16.2928 24.2944 16.4507 24.3468 16.4507C24.4267 16.4501 24.4654 16.2895 24.4795 16.2892C24.7501 16.2978 24.5812 16.4416 24.7615 16.4125C24.858 16.3967 24.9708 16.2164 25.1935 16.2045C25.4929 16.189 25.4251 16.4059 25.5494 16.3889C25.5627 16.386 25.5722 16.2336 25.6948 16.2334C25.8609 16.2336 26.0423 16.2323 26.2407 16.2317C26.6152 16.2308 26.9849 16.2291 27.2762 16.239C27.4046 16.2432 27.4964 16.349 27.6716 16.356C28.0232 16.374 30.0558 16.3506 30.2134 16.4074C30.2321 16.4138 30.0464 16.6369 30.3375 16.6333C30.4238 16.5404 30.5091 16.4475 30.5933 16.3544C30.7333 16.5055 30.8626 16.6563 31.0082 16.807C31.011 16.2893 31.8245 16.2088 31.8238 16.7382C31.9149 16.7592 32.0049 16.7801 32.0938 16.8009C32.2758 16.4329 32.4131 16.5672 32.7658 16.3462C32.8259 16.4576 32.8858 16.5688 32.9454 16.68C32.9584 16.6049 32.9714 16.5297 32.9843 16.4546C33.1855 16.8566 33.4988 16.441 33.5372 16.4375C33.687 16.4244 33.7952 16.524 33.8701 16.5183C34.1382 16.4992 34.6872 16.3341 35.0063 16.3821C35.0207 16.3847 35.0163 16.5587 35.1037 16.5753C35.2615 16.6051 35.2682 16.3505 35.4951 16.635C35.5327 16.5576 35.5678 16.4802 35.6077 16.4025C35.6566 16.4381 35.7051 16.4736 35.7533 16.5091C36.0139 16.4709 36.2849 16.4296 36.5518 16.3859C36.3355 16.6994 36.6249 16.8398 36.8754 16.5833C36.9569 16.4967 36.8606 16.3264 36.8876 16.2966C36.9274 16.26 38.1284 16.2161 38.2153 16.3187C38.2642 16.256 38.3099 16.1936 38.359 16.1307C38.4009 16.239 38.4426 16.3473 38.4841 16.4557C38.5093 16.4128 38.5342 16.37 38.5588 16.3273C38.888 16.4841 39.5594 15.9515 39.6892 15.9808C39.7546 15.994 39.741 16.4233 39.9977 16.4133C40.0194 16.4124 40.0426 16.4098 40.0673 16.4054C40.0738 16.2728 40.0798 16.1403 40.0851 16.0077C40.1828 15.9817 40.2768 15.9546 40.37 15.9264C40.5492 15.9212 40.8303 16.1154 40.8591 16.2689C40.9018 16.1688 40.9437 16.0684 40.9849 15.9679C41.1742 16.2534 41.9171 16.019 42.1656 15.7701C42.2683 15.844 42.3725 15.9171 42.4752 15.9903C42.5673 15.8573 42.6579 15.7241 42.7468 15.5908C43.0006 15.5022 42.7638 15.7431 42.8226 15.7464C42.949 15.7534 43.4719 15.3148 43.5187 15.7052C43.5991 15.688 43.6797 15.6706 43.7605 15.6531C43.7765 15.5345 43.7922 15.416 43.8079 15.2974C44.0319 15.6418 44.2388 15.4539 44.7513 15.4765C44.7709 15.3804 44.7905 15.2844 44.81 15.1884C44.9873 15.2759 45.1643 15.3633 45.3408 15.4508C45.3367 15.3005 45.3326 15.1502 45.3284 14.9999C45.3873 14.964 45.4462 14.9282 45.5051 14.8923C45.7111 15.1819 45.8603 14.7802 46.0093 14.8846C46.2265 15.0372 46.1486 15.2982 45.8406 15.4186C45.9221 15.6453 46.8387 15.3156 47.0467 15.2522C47.0222 15.2097 46.9976 15.1672 46.973 15.1247C46.7616 15.2107 46.5493 15.2981 46.3354 15.3866C46.0104 14.8429 46.6531 14.8577 46.9102 14.7204C46.9334 14.7076 47.0269 14.4515 47.3079 14.412C47.4194 14.3958 47.8995 14.6368 47.9809 14.6401C48.5635 14.6648 48.1949 14.3655 48.587 14.5118C48.6395 14.5294 48.7077 14.5531 48.7926 14.5845C48.5932 14.2945 49.0368 14.4862 49.4215 14.3486C49.4909 14.3249 50.0095 13.9583 50.0466 13.9437C50.2765 13.8554 50.0744 14.1849 50.4042 14.0436C50.4311 13.9622 50.4583 13.8807 50.4859 13.7991C50.5657 13.7831 50.6449 13.7671 50.7265 13.7506C51.3458 14.3029 51.3634 13.7997 51.5212 13.7034C51.5861 13.6642 51.5299 13.8526 51.7056 13.7792C51.7706 13.752 51.8151 13.5956 51.9987 13.5475C52.564 13.3988 52.8843 13.9627 53.2794 13.2247C53.3807 13.2987 53.478 13.3736 53.5779 13.4479C53.6096 13.3273 53.6416 13.2066 53.6739 13.0859C54.1544 13.3169 53.9382 13.0229 54.0896 12.9954C54.4888 12.9228 55.3136 12.8159 55.4384 13.0628C55.6572 12.3904 56.2069 12.9832 56.3362 12.9319C56.4011 12.8422 56.4668 12.7524 56.532 12.6627C56.6408 12.7166 56.7501 12.7703 56.8599 12.824C56.6922 12.2433 57.2995 12.7225 57.3491 12.7215C57.405 12.719 58.119 12.3889 58.3994 12.3344C58.6484 12.286 59.0854 12.328 59.2109 12.3316C59.2264 12.3321 59.2371 12.332 59.2418 12.3311C59.2927 12.3205 59.7268 12.0643 60.0953 11.9934C60.4149 11.9267 62.3603 11.8058 62.1929 11.5666C62.0531 11.5155 61.8665 11.4831 61.7068 11.4765C61.3947 11.4628 60.1534 11.6132 59.0955 11.7715C58.4735 11.8637 57.9139 11.9503 57.6454 11.9898C56.1796 12.2065 54.673 12.5373 53.2048 12.7824C53.1178 12.797 53.073 12.6468 52.999 12.6586C52.8887 12.6768 52.634 12.8893 52.5248 12.9084C52.1114 12.9802 51.6059 13.0581 51.3832 13.0997C50.8893 13.1927 50.532 13.1691 50.1554 13.229C50.0354 13.2485 49.4848 13.5557 49.0557 13.5535C48.976 13.5239 48.8889 13.4955 48.8084 13.4657C49.0108 13.3766 49.5378 13.1395 49.7883 13.074C50.1628 12.9775 50.3846 13.0617 50.5231 13.0315C50.6407 13.0062 51.2074 12.7437 51.479 12.6843C51.5622 12.666 51.612 12.823 51.684 12.8077C52.0743 12.7234 52.5877 12.6127 52.8945 12.385C52.7656 12.4653 53.6525 12.3838 53.6956 12.3742C53.7724 12.3582 53.8278 12.1901 53.9848 12.1575C54.289 12.0942 54.3154 12.4162 54.6315 12.0228C54.7454 12.0946 54.857 12.1668 54.9707 12.2385C54.8911 11.8188 56.1974 12.1403 56.4309 11.5617C56.4278 11.5024 54.8487 11.661 54.7179 11.6797C53.9412 11.789 52.8292 12.1275 52.0709 12.2075C51.8409 12.2321 51.0843 12.1224 51.034 12.1375C50.9487 12.1624 51.0568 12.2919 51.0204 12.3047C50.2834 12.5675 50.6038 12.1975 50.4857 12.1335ZM84.2558 9.44033C84.0246 9.43346 83.7982 9.4272 83.5671 9.42215C83.5783 9.32766 83.5897 9.23316 83.6012 9.13866C83.709 9.16937 83.8147 9.20041 83.9218 9.23155C84.0022 9.17147 84.077 9.11179 84.1559 9.05201C84.1891 9.18144 84.2224 9.31088 84.2558 9.44033ZM84.8045 9.02358C85.0047 8.96828 85.0186 9.16572 85.066 9.17354C85.2081 9.19744 85.3195 9.11339 85.4554 9.11141C85.3174 9.58602 84.9843 9.38315 84.8045 9.02358ZM80.6747 9.10596C80.7219 9.12462 81.0572 9.60326 81.3529 9.11118C81.4103 9.14046 81.4681 9.16984 81.5238 9.19951C81.7383 9.30214 81.9501 9.40419 82.1595 9.50655C81.9675 9.42305 81.7489 9.42443 81.5402 9.45383C81.28 9.49246 81.0393 9.58893 80.9185 9.59342C80.84 9.59633 80.8119 9.44296 80.7479 9.44575C80.3816 9.46381 80.0535 9.84805 79.9683 9.33974C80.3318 9.45548 80.6152 9.0832 80.6747 9.10596ZM82.9318 9.13231C82.9976 9.23588 83.0653 9.33939 83.1291 9.44319C82.9146 9.45598 82.7039 9.46936 82.4867 9.48369C82.5369 9.37142 82.5889 9.25907 82.6405 9.14679C82.7359 9.14194 82.8365 9.13687 82.9318 9.13231ZM66.3225 10.8298C66.4368 10.8121 66.5519 10.7937 66.6672 10.7746C66.6905 10.7707 66.7138 10.7669 66.737 10.7631C66.7281 10.73 66.6952 10.7162 66.6555 10.7077C66.6 10.6976 66.5323 10.6961 66.494 10.6724C66.4943 10.6724 66.4945 10.6723 66.4948 10.6723C66.4194 10.6244 66.4308 10.5204 66.305 10.4961C66.3107 10.6074 66.3167 10.7185 66.3225 10.8298ZM10.6389 13.1462C10.5277 13.1071 9.91552 12.9131 9.39846 12.8313C8.9323 12.7535 8.53208 12.7315 8.58041 12.878C8.62031 12.999 9.04375 13.054 9.33176 13.0982C9.41615 13.1104 9.48893 13.1225 9.53383 13.1349C9.78981 13.2015 10.3867 13.7053 10.6389 13.1462ZM7.14114 12.1975C7.04399 12.4666 8.3012 12.8045 8.43377 12.7868C8.41741 12.7412 8.3974 12.6436 8.3673 12.6154C8.22047 12.4791 7.40014 12.3367 7.14114 12.1975ZM58.7488 11.306C58.8512 11.3985 58.9539 11.491 59.0567 11.5835C59.0869 11.6105 59.117 11.6376 59.147 11.6646C59.0912 11.5117 59.0351 11.3588 58.9789 11.206C58.9698 11.1812 58.9608 11.1564 58.9517 11.1316C58.8838 11.1898 58.8162 11.2479 58.7488 11.306ZM48.7392 13.5669C48.6367 13.5852 48.5314 13.6036 48.4312 13.6206C46.8606 13.8919 45.2554 14.3099 43.6253 14.6761C43.7601 14.5651 43.894 14.4539 44.0277 14.3425C45.4862 14.0276 47.0292 13.7095 48.3854 13.3588C48.4137 13.3515 48.4426 13.344 48.472 13.3363C48.5631 13.413 48.6483 13.4906 48.7392 13.5669ZM80.116 8.30908C79.6715 8.34695 79.3131 8.52033 78.8056 8.35214C79.2476 8.09431 79.5085 8.39787 79.9275 8.04499C79.9278 8.04497 79.928 8.04494 79.9283 8.04492C79.9914 8.13287 80.0539 8.22093 80.116 8.30908ZM70.2071 9.47077C70.3217 9.31637 70.4347 9.1612 70.5452 9.00531C70.381 9.03858 70.2167 9.07007 70.0523 9.10014C70.1035 9.2238 70.1551 9.34735 70.2071 9.47077ZM33.4549 15.1542C32.9876 15.4554 31.7736 14.9515 31.3903 15.293C31.3651 15.3155 31.5935 15.4607 31.2249 15.7412C31.5029 15.6841 31.7002 15.6245 31.7216 15.4037C31.8059 15.4782 31.8895 15.5527 31.9724 15.627C32.1067 15.5694 32.2459 15.5115 32.3847 15.4532C32.3718 15.6731 32.3849 15.6615 32.5923 15.5081C32.687 15.5624 32.7857 15.6164 32.8855 15.6702C32.9253 15.5764 32.9647 15.4825 33.0037 15.3886C33.0898 15.5171 33.1752 15.6454 33.2599 15.7736C33.5902 15.624 33.38 15.3769 33.4549 15.1542ZM35.1087 15.1391C35.0324 15.1056 32.8443 15.3394 33.8554 15.7439C34.1188 15.7211 34.3799 15.6967 34.6375 15.6704C34.3883 14.956 35.1271 15.5693 35.1892 15.5795C35.4761 15.634 35.8156 15.4371 36.0229 15.4296C36.1966 15.4239 36.3121 15.5447 36.4352 15.5305C36.854 15.4838 37.5103 15.4061 37.5675 15.0963C37.2461 15.1274 36.9151 15.1592 36.5812 15.1977C36.2266 15.2376 35.8973 14.9828 35.2536 15.4123C35.0833 15.3806 35.1296 15.1503 35.1087 15.1391ZM70.9626 8.94779C70.9732 9.01279 71.0203 9.05159 71.0879 9.07077C71.3136 9.14078 71.7801 8.98767 71.7697 8.89618C71.7591 8.82661 71.5 8.8761 71.4581 8.85796C71.4578 8.85801 71.4576 8.85806 71.4573 8.8581C71.4395 8.84985 71.4962 8.72082 71.3672 8.71371C71.2597 8.77403 71.1536 8.83546 71.0488 8.89814C71.0201 8.91476 70.9913 8.93131 70.9626 8.94779ZM13.9048 13.5794C13.8505 13.3825 11.4143 12.5619 11.3168 12.629C11.2904 12.6439 11.2937 12.7233 11.2725 12.7614C11.9126 12.7224 12.6181 13.2799 13.1476 13.4924C13.2956 13.5515 13.2918 13.4225 13.3011 13.4234C13.3014 13.4235 13.3018 13.4237 13.3021 13.4238C13.3867 13.4543 13.6731 13.8692 13.9048 13.5794ZM30.5632 15.4274C30.673 15.4755 30.7814 15.5234 30.8885 15.5711C30.9157 15.4778 30.9448 15.3845 30.9738 15.2912C30.9735 15.2912 30.9733 15.2912 30.973 15.2912C30.8341 15.3369 30.7024 15.3823 30.5632 15.4274ZM26.7714 15.0315C26.7957 15.0982 26.8198 15.1649 26.844 15.2315C27.1126 15.2502 27.3972 15.2687 27.6712 15.2862C27.6424 15.3225 27.6135 15.3587 27.5845 15.3949C27.9939 15.5068 28.1786 15.2804 28.4004 15.3194C28.4001 15.3194 28.3999 15.3194 28.3996 15.3194C28.4234 15.3239 28.4491 15.4616 28.5373 15.4685C28.7312 15.4843 29.3321 15.5478 29.3987 15.4108C29.5553 15.1204 28.3779 15.2352 28.1547 15.2143C28.0529 15.2053 27.9374 15.082 27.8792 15.0775C27.8144 15.073 27.7213 15.2322 27.5602 15.2222C27.513 15.2192 26.9934 15.0116 26.7714 15.0315ZM21.89 15.0104C21.9676 15.1634 22.1524 15.0303 22.2166 15.0581C22.232 15.0647 22.1032 15.1819 22.2491 15.2271C22.2959 15.1449 22.3425 15.0626 22.3878 14.9803C22.2212 14.9907 22.0582 15.0009 21.89 15.0104ZM72.288 8.55673C72.2597 8.52748 71.8252 8.60802 71.8082 8.63273C71.5965 8.94104 72.4811 8.76888 72.288 8.55673ZM83.4911 7.20043C83.2633 6.81237 85.7306 7.09237 85.9624 7.07129C85.9634 7.31824 85.3686 7.08917 85.6842 7.41818C85.3892 7.24045 84.59 7.37036 84.4004 7.32529C84.2837 7.29769 84.2466 7.08575 84.2292 7.07977C84.1568 7.05849 83.5742 7.33422 83.4911 7.20043ZM87.9839 7.18888C87.7497 7.14667 87.5178 7.10476 87.2845 7.06327C87.5598 7.0289 87.8266 6.99526 88.1073 6.9618C88.0658 7.03749 88.0247 7.11318 87.9839 7.18888ZM88.2734 7.07095C88.2608 6.83136 89.0508 7.00004 89.2612 6.94193C89.0297 7.35294 88.6394 6.97505 88.2734 7.07095ZM75.1667 7.63063C74.7929 7.50792 74.705 8.24927 75.1146 7.89087C75.127 7.87912 75.1826 7.63751 75.1667 7.63063ZM33.3149 14.1302C33.2525 14.1284 32.4891 13.9059 32.4494 14.0226C32.3162 14.3985 32.8086 14.2419 32.9832 14.3791C33.2594 14.6017 32.8581 14.8007 33.524 14.6453C33.4992 14.7209 33.4741 14.7965 33.4487 14.8721C33.8377 14.8857 33.6902 14.3708 33.7597 14.302C33.7817 14.2811 34.0263 14.3162 34.0669 14.2814C34.5842 13.8439 33.3787 14.135 33.3149 14.1302ZM66.2499 8.91008C65.5094 8.81005 65.866 9.07878 65.1311 9.17029C65.1313 9.33804 66.1853 9.07143 66.2499 8.91008ZM40.2859 13.8498C40.1333 13.8808 39.9845 13.8947 39.8446 13.8989C39.2751 13.9182 38.7602 13.8998 38.2473 14.1913C38.3141 14.4784 39.2438 14.2513 39.8557 14.0816C40.1551 13.9907 40.3538 13.8813 40.2859 13.8498ZM6.00887 9.84961C7.13373 10.4851 8.44583 10.9136 9.78034 11.3033C11.3365 11.7564 12.8701 12.301 14.3363 12.7979C14.5215 12.8605 14.7065 12.9208 14.8911 12.9791C15.2055 13.0776 15.1858 13.2541 15.3067 13.2704C15.3858 13.2807 15.4127 13.1405 15.5126 13.1686C16.4079 13.421 17.317 13.5993 18.2364 13.7878C20.8421 14.1847 23.6287 14.0935 26.3161 14.2815C26.3787 14.2852 26.441 14.2889 26.503 14.2927C26.7365 14.3081 27.8517 14.6505 28.0995 14.1958C28.2863 13.8518 27.4862 14.101 27.3443 14.0927C27.2421 14.0871 27.2406 13.9228 27.1751 13.92C27.1054 13.917 27.1593 14.0311 27.078 14.03C26.8376 14.0272 26.5768 13.998 26.3278 13.9793C26.2206 13.9711 26.1179 13.9651 26.022 13.9643C23.3926 13.9152 20.6809 13.8957 18.3109 13.4601C17.8526 13.3535 17.4 13.252 16.9538 13.1446C16.5947 13.0577 16.7005 12.9468 16.6825 12.9421C16.6821 12.9424 16.6818 12.9426 16.6815 12.9429C15.9692 12.765 15.2305 12.5971 14.4836 12.38C13.1963 12.0031 11.8361 11.5691 10.5199 11.1185C10.3089 11.0446 10.0957 10.9735 9.87957 10.9062C8.63077 10.5122 7.36658 10.1607 6.15647 9.78557C6.10703 9.80692 6.05784 9.82827 6.00887 9.84961ZM34.9118 14.532C34.6996 14.046 34.6846 14.5507 34.0073 14.3745C33.9564 14.4611 33.9047 14.5476 33.8521 14.6341C34.2073 14.6034 34.5537 14.57 34.9129 14.532C34.9125 14.532 34.9122 14.532 34.9118 14.532ZM30.4815 14.4325C30.3732 13.7638 28.8632 14.2143 28.1969 14.0656C28.0668 14.3991 29.0494 14.2729 29.2832 14.3118C29.3931 14.3316 30.0125 14.6887 30.4873 14.5009C30.4854 14.4781 30.4834 14.4553 30.4815 14.4325ZM80.8662 6.38366C80.7563 6.41166 80.6461 6.44007 80.5363 6.46877C80.81 6.5177 81.0841 6.56832 81.3576 6.62216C81.3682 6.62435 81.3789 6.62653 81.3895 6.62871C81.379 6.62824 81.3684 6.62776 81.3579 6.62727C80.9184 6.60895 80.4826 6.59829 80.0476 6.59051C80.1171 6.4447 80.1879 6.29889 80.2585 6.15325C80.4614 6.22909 80.664 6.30576 80.8662 6.38366ZM79.436 6.58098C80.202 6.45584 79.4324 6.90191 79.2249 6.75655C79.1003 6.66912 79.3578 6.5941 79.436 6.58098ZM77.4151 6.54711C77.7458 6.26651 78.4683 6.17476 78.2611 6.68623C77.851 6.49929 77.6219 6.71416 77.0496 6.64277C77.1213 6.54122 77.193 6.43967 77.2648 6.33813C77.2651 6.33809 77.2655 6.33805 77.2659 6.33801C77.3156 6.40771 77.3653 6.47741 77.4151 6.54711ZM79.7609 6.25395C80.2934 6.48484 78.8199 6.52896 79.2623 6.30153C79.2823 6.29086 79.7404 6.24485 79.7609 6.25395ZM9.24843 10.0939C9.15142 10.2343 9.53336 10.3232 9.65798 10.365C9.76271 10.4002 9.87357 10.4325 9.99018 10.4637C10.5015 10.599 11.0766 10.7279 11.535 10.8954C11.5078 10.8315 11.4803 10.7676 11.4525 10.7038C10.9919 10.5546 10.5205 10.4136 10.0337 10.2897C9.77165 10.223 9.5099 10.1578 9.24843 10.0939ZM13.2923 11.5066C13.6701 11.6434 14.0431 11.78 14.4111 11.9114C14.4455 11.9237 14.6514 11.8517 14.5433 11.7781C14.1333 11.6925 13.7152 11.5995 13.2923 11.5066ZM37.286 13.3751C36.9802 13.3208 37.7754 12.7677 37.7989 13.2569C37.6264 13.2972 37.4567 13.3366 37.286 13.3751ZM40.1075 12.8808C39.9996 12.9236 39.8923 12.9642 39.79 13.0019C39.7219 13.0212 39.6547 13.0408 39.5884 13.0609C39.5839 13.0048 39.5795 12.9486 39.5751 12.8925C39.6438 12.8906 39.7131 12.889 39.783 12.888C39.8859 12.8883 39.9957 12.8857 40.1075 12.8808ZM7.73458 9.62452C7.88874 9.85782 8.36936 9.93821 8.66633 10.0121C8.49898 9.80254 7.99378 9.76919 7.73458 9.62452ZM32.8428 13.4519C32.8631 13.585 31.6786 13.5644 32.0855 13.3292C32.3423 13.3713 32.585 13.4124 32.8428 13.4519ZM30.4187 13.2659C30.6797 13.2397 30.8718 13.2856 30.8193 13.4917C30.6857 13.4821 30.5496 13.4723 30.4111 13.4621C30.4136 13.3967 30.4162 13.3313 30.4187 13.2659ZM76.019 6.30003C75.7316 6.34257 75.4447 6.38473 75.1588 6.42607C75.0173 6.44668 74.8743 6.46673 74.7299 6.48656C74.7406 6.429 74.7513 6.37143 74.7618 6.31387C74.8898 6.29609 75.0166 6.27812 75.1419 6.25973C75.4281 6.21811 75.7152 6.17566 76.003 6.13282C76.0084 6.18856 76.0137 6.24429 76.019 6.30003ZM7.60707 9.07595C7.30611 9.04416 7.00893 9.01291 6.71559 8.9806C6.99185 9.08546 7.27286 9.18949 7.55747 9.29401C7.57432 9.22106 7.59118 9.14811 7.60803 9.07517C7.60771 9.07543 7.60739 9.07569 7.60707 9.07595ZM82.0218 5.01166C80.6674 4.84011 82.3498 4.44644 82.7498 4.81029C82.7502 4.80995 82.7505 4.8096 82.7509 4.80925C82.7853 4.84133 82.727 5.01013 82.7848 5.0733C82.6388 5.00745 82.4946 4.94184 82.3525 4.87633C82.2297 4.97724 82.1104 5.07813 81.9921 5.17905C81.9486 5.14544 81.904 5.1119 81.8608 5.07828C81.9139 5.05609 81.9691 5.03378 82.0218 5.01166ZM87.5344 4.63624C88.7651 4.64179 87.5136 5.07823 86.8968 4.76826C86.9025 4.69256 87.4153 4.63582 87.5344 4.63624ZM84.2951 4.82661C84.1013 4.87256 83.907 4.91911 83.7117 4.96635C83.6841 4.92047 83.6565 4.8746 83.6292 4.82873C83.7802 4.77412 83.9236 4.72027 84.0772 4.66629C84.1487 4.71971 84.2212 4.77315 84.2951 4.82661ZM77.7914 4.58888C77.4765 4.5698 77.136 5.13282 78.1162 4.89187C78.1099 4.83591 78.1036 4.77995 78.0973 4.72399C78.0583 4.73705 77.9473 4.80168 77.9406 4.79816C77.9209 4.78606 77.923 4.59675 77.7914 4.58888ZM89.7882 3.11383C89.823 3.09197 89.8299 2.49767 90.2045 3.10754C90.3162 3.06874 90.4268 3.03 90.5338 2.99136C90.5633 3.12189 90.5929 3.25242 90.6226 3.38295C90.2054 3.28619 90.1507 3.55184 90.1228 3.55778C89.9814 3.58433 90.0844 3.44684 89.9934 3.44613C89.7662 3.44439 89.2192 3.54379 89.4599 3.15159C89.5445 3.01113 89.7564 3.13566 89.7882 3.11383ZM88.9454 2.78827C88.9983 2.83701 88.8332 3.01346 88.8734 3.06193C88.9094 3.10406 89.427 3.27347 89.292 3.56912C89.2091 3.55798 89.1255 3.54689 89.0385 3.53589C89.0081 3.45596 88.9779 3.37603 88.9477 3.2961C88.8664 3.37163 88.7861 3.44718 88.7068 3.52274C88.5731 3.32656 88.2628 3.075 88.615 2.90705C88.4871 2.92618 88.3545 2.94548 88.228 2.96477C88.1636 3.06103 88.1008 3.15729 88.0369 3.2536C88.069 3.1081 88.0996 2.96263 88.1313 2.81715C88.3999 2.80716 88.6753 2.79748 88.9454 2.78827ZM92.9085 2.80204C92.8934 2.877 92.8783 2.95196 92.8633 3.02692C93.3428 2.88465 94.0555 2.82859 93.6472 3.29993C93.0237 3.34201 92.3743 3.38524 91.7513 3.42958C91.7082 3.37363 91.6643 3.31769 91.6211 3.26175C92.0975 3.4747 91.9373 2.55272 92.3567 2.8145C92.4254 2.85894 92.2326 3.18309 92.6611 2.97353C92.6453 2.89844 92.6295 2.82335 92.6137 2.74826C92.7111 2.76617 92.8094 2.78409 92.9085 2.80204ZM97.1951 3.06878C97.1625 3.05772 97.1386 3.04574 97.1202 3.03333C96.9507 2.95167 97.0414 2.86726 97.1371 2.83842C97.1954 2.81226 97.2933 2.82489 97.3276 2.92119C97.3275 2.92119 97.3273 2.92118 97.3272 2.92118C97.5141 3.41628 97.1972 3.32624 97.1006 3.26034C97.0707 3.24271 97.0316 3.22571 97.0226 3.22568C96.9711 3.22736 96.7486 3.64655 96.3181 2.96471C96.6077 2.9912 97.0079 3.04071 97.1181 3.05801C97.1419 3.06173 97.1676 3.06533 97.1951 3.06878ZM94.4284 2.80336C94.4989 2.79025 94.4575 2.90237 94.4876 2.90137C94.4879 2.90138 94.4882 2.90138 94.4884 2.90139C94.928 2.8832 96.0689 2.82973 96.1976 3.20901C95.7861 3.20406 94.2876 3.24264 94.2106 2.99621C94.2831 2.93183 94.3548 2.86752 94.4284 2.80336ZM91.2981 3.08695C91.0331 2.85335 91.6256 2.8163 91.7855 2.92441C91.8182 2.94782 91.5715 3.32894 91.2981 3.08695ZM70.47 3.96563C69.7679 4.25488 70.7536 4.19681 70.4678 4.48199C70.6003 4.43578 70.7321 4.39125 70.8633 4.34821C70.7351 4.21933 70.6041 4.09174 70.47 3.96563ZM44.4392 8.44942C44.299 8.45574 44.394 8.57254 44.3828 8.57725C44.2939 8.59448 44.1857 8.50678 44.1549 8.52614C43.5908 8.89032 44.0269 8.90305 44.039 8.92736C44.0832 9.05469 43.9583 9.24595 44.2177 9.34147C44.3424 9.26277 44.4688 9.18376 44.5955 9.10486C44.6813 9.16111 44.7674 9.21736 44.8533 9.2737C45.0928 9.05308 44.7214 9.09533 44.6317 8.89858C44.5966 8.82117 44.8338 8.66244 44.4392 8.44942ZM69.3772 3.73773C69.3512 3.98313 69.2173 4.31098 69.4465 4.50822C69.4467 4.50818 69.4469 4.50814 69.4471 4.5081C69.4895 4.54414 69.6319 4.5402 69.6859 4.59107C69.9191 4.22136 69.7331 3.9308 69.3772 3.73773ZM47.0197 7.45587C47.1305 7.45768 47.2427 7.45979 47.3544 7.46267C47.4638 7.47698 47.5871 7.48809 47.7103 7.49873C47.7328 7.63824 47.7552 7.77776 47.7777 7.91728C47.6643 7.89955 47.5535 7.88097 47.4494 7.86062C47.4438 7.87785 47.4384 7.89507 47.433 7.91226C47.404 7.9665 47.3753 8.02079 47.3467 8.07511C47.3898 8.10214 47.4328 8.12926 47.4757 8.15648C47.5911 8.26515 47.7159 8.3716 47.846 8.47666C47.9922 8.39242 48.1525 8.30466 48.3042 8.21803C48.2135 8.15961 48.1246 8.10074 48.0346 8.04194C48.421 7.88428 48.4002 8.23793 48.766 8.29999C48.8612 8.14781 48.9481 7.99712 49.0436 7.84461C49.2379 7.93987 49.4355 8.03423 49.6363 8.12776C49.9109 8.00942 49.9197 7.90533 49.6933 7.79836C49.8047 7.60094 50.0136 7.83339 50.1761 7.72889C50.1891 7.72048 50.1301 7.56785 50.1422 7.56338C51.0193 7.27254 51.0622 7.6957 51.2079 7.68416C51.3119 7.67535 51.6617 7.3109 51.6489 7.21396C51.6296 7.08374 50.6762 6.75232 52.0028 6.46334C51.2409 6.25567 50.5397 6.7727 51.1478 7.18405C50.9183 7.17769 49.9949 7.50125 49.9292 7.49825C49.8362 7.4929 49.8292 7.29076 49.7164 7.30839C49.6502 7.31886 49.5656 7.80188 48.9774 7.51328C48.926 7.59989 48.8745 7.68648 48.825 7.77264C48.7542 7.72397 48.6784 7.67626 48.6065 7.62772C48.6911 7.38744 48.7694 7.1482 48.8548 6.9074C48.4006 7.24129 47.9161 6.87891 47.7039 7.30225C47.4525 7.3043 47.3407 7.27936 47.4042 7.07221C47.3637 7.07947 47.3255 7.08624 47.2897 7.09251C47.2465 7.10005 47.2035 7.10768 47.1605 7.1154C47.1127 7.22881 47.0651 7.34244 47.0197 7.45587ZM67.9793 4.31606C67.6888 4.13844 67.6601 4.62025 67.706 4.64051C67.9613 4.75119 68.1297 4.40845 67.9793 4.31606ZM45.0004 8.57526C45.3373 8.62185 45.6783 8.66897 46.0256 8.71773C45.9937 8.57176 45.9619 8.42579 45.93 8.27982C45.6118 8.37762 45.3034 8.47633 45.0004 8.57526ZM70.513 3.61499C70.5697 3.7181 70.6258 3.82144 70.6813 3.92499C71.0286 3.44369 71.5246 3.96304 71.6976 3.81629C71.7361 3.78411 71.6233 3.60027 71.5348 3.57042C71.4864 3.54674 70.5872 3.55754 70.513 3.61499ZM84.9639 2.32412C84.8341 2.40416 84.7122 2.48411 84.587 2.5644C84.5892 2.43824 84.5914 2.31207 84.5937 2.18591C84.6561 2.15996 84.7165 2.13413 84.7794 2.10827C84.8402 2.1802 84.9017 2.25215 84.9639 2.32412ZM83.5042 2.58811C83.2734 2.58975 83.0401 2.59242 82.8089 2.59588C83.6855 2.43091 82.9568 2.41466 83.4856 2.22238C83.4918 2.34429 83.498 2.4662 83.5042 2.58811ZM81.2001 2.47513C81.2209 2.39841 81.2422 2.32164 81.2628 2.24491C81.4741 2.23088 81.6945 2.21576 81.9198 2.20078C81.7597 1.94978 81.6019 1.69882 81.4462 1.44768C81.3672 1.45236 81.288 1.45703 81.2115 1.46146C81.2081 1.79933 81.204 2.13724 81.2001 2.47513ZM39.3902 8.90738C39.1972 8.91357 38.6188 9.19794 38.6595 9.27945C38.9075 9.35759 39.169 9.4377 39.4334 9.52303C39.4244 9.37356 39.4154 9.2241 39.4064 9.07463C39.4488 9.14644 39.491 9.21838 39.5331 9.29044C39.5431 9.28599 39.5532 9.28155 39.5632 9.27712C39.5948 9.22294 39.6355 9.16745 39.6783 9.11097C39.7167 9.23879 39.7606 9.36583 39.8055 9.49253C39.8204 9.34058 39.835 9.18844 39.8494 9.03611C39.5291 8.80647 39.605 9.06016 39.5558 9.06205C39.5538 9.06204 39.5518 9.06093 39.5499 9.05892C39.485 9.04542 39.4386 8.97024 39.4113 8.93041C39.4042 8.92273 39.3972 8.91505 39.3902 8.90738ZM45.0011 7.59678C44.3362 7.7123 44.0736 8.18182 43.551 7.96781C43.9808 8.58602 45.7357 7.41992 46.646 7.84339C46.7025 7.71727 46.7592 7.59134 46.8195 7.46501C46.4175 7.64495 46.0945 7.47734 45.8933 7.48638C45.7331 7.49393 45.7755 7.60564 45.7633 7.60655C45.7627 7.60667 45.7622 7.60679 45.7617 7.60691C45.3962 7.63762 45.264 7.55157 45.0011 7.59678ZM71.0154 2.96627C70.772 2.82479 70.3814 2.91573 70.4268 3.17214C70.657 3.20444 70.8814 3.24132 71.1004 3.28187C71.0471 3.22318 71.057 2.99029 71.0154 2.96627ZM80.8818 1.76899C80.7232 1.69476 80.3789 1.79559 80.5472 2.00768C80.5764 2.0451 80.9161 1.86251 80.739 2.28129C81.0795 2.25085 80.9739 1.81161 80.8818 1.76899ZM55.7705 5.93702C55.8777 5.90712 55.9873 5.87676 56.0936 5.84706C56.0976 5.73918 56.1017 5.63129 56.1058 5.5234C55.9948 5.66109 55.8822 5.79915 55.7705 5.93702ZM72.7166 2.55999C72.9372 3.05225 73.1677 2.52724 73.4993 2.91977C73.6073 2.91288 73.7132 2.90635 73.8174 2.90004C73.8177 2.90002 73.8179 2.89999 73.8182 2.89997C73.8082 2.76033 73.7982 2.62069 73.7882 2.48105C73.4513 2.50351 73.0933 2.52842 72.7166 2.55999ZM48.9708 7.08438C49.0479 7.13532 49.1282 7.18559 49.206 7.23635C49.3049 7.13905 49.4114 7.04016 49.5106 6.94263C49.4369 6.90212 49.3638 6.86146 49.2887 6.82118C49.1822 6.90912 49.0766 6.99679 48.9708 7.08438ZM74.5558 2.33996C74.2225 2.30732 74.1343 2.76333 74.561 2.72405C74.7371 2.70697 74.8946 2.37388 74.5558 2.33996ZM32.8505 9.60161C32.9662 9.63741 33.0722 9.67313 33.1902 9.70827C33.2271 9.61356 33.2634 9.51883 33.2992 9.42408C33.1468 9.48389 33.0015 9.54294 32.8505 9.60161ZM82.6266 1.70573C82.6171 1.80021 82.6083 1.89466 82.5981 1.9892C82.4788 1.9775 82.3651 1.96568 82.248 1.95425C82.2707 1.85951 82.2939 1.76476 82.3174 1.66999C82.4207 1.68174 82.5226 1.69371 82.6266 1.70573ZM33.6062 9.63963C33.6985 9.65454 33.7888 9.66928 33.8773 9.68387C33.9353 9.63608 33.9882 9.58839 34.049 9.54029C33.9614 9.4986 33.8828 9.45636 33.7975 9.41418C33.7351 9.48941 33.6713 9.56456 33.6062 9.63963ZM77.9039 2.03341C77.7512 1.93573 77.231 2.34317 77.7421 2.38002C78.0688 2.40339 77.9267 2.04833 77.9039 2.03341ZM78.6553 1.84455C78.0938 1.6851 78.6007 2.72813 79.1874 1.96273C78.5384 2.12228 78.6893 1.85447 78.6553 1.84455ZM83.5054 0.925836C83.5191 0.925725 83.541 1.08149 83.6525 1.08186C84.0579 1.08222 84.5902 1.12239 84.8757 1.12152C85.5646 1.11507 87.623 0.781288 87.8674 1.23219C87.9197 1.32642 87.8093 1.6133 87.8302 1.62754C87.8932 1.66709 88.2296 1.52254 88.1706 1.73324C87.837 1.73788 87.5016 1.74319 87.1631 1.74939C87.2414 1.59976 87.3211 1.45014 87.402 1.30054C86.5668 1.39853 86.8368 1.38371 86.6078 1.71123C86.4636 1.59026 86.3117 1.46966 86.1689 1.349C85.8581 1.4832 85.5499 1.61819 85.2425 1.75424C85.3136 1.6583 85.3774 1.56267 85.4454 1.46694C84.9664 1.31007 85.1036 1.41906 84.8508 1.65504C84.8467 1.56171 84.8427 1.46837 84.8386 1.37504C84.3908 1.62002 84.2872 1.34489 84.185 1.34578C83.9733 1.35003 83.7701 2.46308 82.9129 1.40924C82.6076 1.95663 82.5507 0.882332 82.3878 1.44053C81.7826 0.882119 82.8762 1.02744 83.3948 1.02237C83.3951 1.02235 83.3953 1.02234 83.3956 1.02233C83.4343 1.02205 83.3671 0.924992 83.5054 0.925836ZM80.6603 1.65256C80.9853 1.13948 79.5566 1.20788 80.0844 1.86848C80.1542 1.88548 80.2262 1.90241 80.2964 1.91961C80.4164 1.83026 80.538 1.74117 80.6611 1.6525C80.6609 1.65252 80.6606 1.65254 80.6603 1.65256ZM68.2118 2.859C67.1726 3.22119 67.8292 3.40327 68.1479 3.07773C68.2101 3.01316 68.2362 2.93385 68.2118 2.859ZM43.9963 7.44961C43.9925 7.51042 43.9887 7.57122 43.9849 7.63202C44.3641 7.48453 45.2162 7.51799 45.1209 7.1376C44.734 7.24194 44.3603 7.34647 43.9963 7.44961ZM47.3467 6.47233C47.3177 6.46733 47.2402 6.46503 47.1811 6.47169C47.043 6.49089 46.9167 6.53213 46.9619 6.60954C47.0481 6.63809 47.1343 6.66696 47.2204 6.69618C47.2954 6.74453 47.3822 6.79048 47.4655 6.83682C47.515 6.7616 47.5621 6.68669 47.6124 6.61105C47.5223 6.60542 47.365 6.47536 47.3467 6.47233Z" fill="#FFC903"/>
</svg>
